<?xml version="1.0" encoding="UTF-8" standalone="no"?>
<!-- Created with Inkscape (http://www.inkscape.org/) -->

<svg
   width="120.41054mm"
   height="120.41054mm"
   viewBox="0 0 120.41054 120.41054"
   version="1.1"
   id="svg5"
   xml:space="preserve"
   inkscape:version="1.2-beta (1b65182c, 2022-04-05)"
   sodipodi:docname="Logo Université Cheikh-Anta-Diop.svg"
   inkscape:export-filename="Logo Universite.png"
   inkscape:export-xdpi="636"
   inkscape:export-ydpi="636"
   xmlns:inkscape="http://www.inkscape.org/namespaces/inkscape"
   xmlns:sodipodi="http://sodipodi.sourceforge.net/DTD/sodipodi-0.dtd"
   xmlns="http://www.w3.org/2000/svg"
   xmlns:svg="http://www.w3.org/2000/svg"><sodipodi:namedview
     id="namedview7"
     pagecolor="#ffffff"
     bordercolor="#666666"
     borderopacity="1.0"
     inkscape:pageshadow="2"
     inkscape:pageopacity="0.0"
     inkscape:pagecheckerboard="0"
     inkscape:deskcolor="#d1d1d1"
     inkscape:document-units="mm"
     showgrid="false"
     inkscape:zoom="1"
     inkscape:cx="265"
     inkscape:cy="228"
     inkscape:window-width="1317"
     inkscape:window-height="404"
     inkscape:window-x="0"
     inkscape:window-y="25"
     inkscape:window-maximized="0"
     inkscape:current-layer="layer1"><inkscape:grid
       type="xygrid"
       id="grid1310"
       originx="-45.031382"
       originy="-88.849017" /></sodipodi:namedview><defs
     id="defs2" /><g
     inkscape:label="Calque 1"
     inkscape:groupmode="layer"
     id="layer1"
     transform="translate(-45.031379,-88.849011)"><path
       id="path1561"
       style="display:inline;opacity:1;fill:#2993cd;fill-opacity:1;fill-rule:evenodd;stroke:#000000;stroke-width:1.05833;stroke-linecap:round;stroke-miterlimit:6;stroke-dasharray:none;stroke-opacity:1;paint-order:markers stroke fill"
       d="m 164.91275,149.05427 c 0,14.64668 -5.27659,28.06096 -14.03254,38.44558 -0.5227,0.6199 -1.05778,1.22903 -1.6049,1.82695 -0.0551,0.0602 0.0553,-0.06 0,0 -10.90391,11.81997 -26.68943,19.40358 -44.03866,19.40358 -32.958201,0 -59.676105,-26.71789 -59.676106,-59.67611 10e-7,-32.95819 26.717905,-59.676094 59.676106,-59.676094 32.95821,0 59.6761,26.717904 59.6761,59.676094 z"
       sodipodi:nodetypes="ssssssss"
       inkscape:label="Grand cercle" /><path
       id="circle1540"
       style="display:inline;opacity:1;fill:#2993cd;fill-opacity:1;fill-rule:evenodd;stroke:#000000;stroke-width:1.05833;stroke-linecap:round;stroke-miterlimit:6;stroke-dasharray:none;stroke-opacity:1;paint-order:markers stroke fill"
       d="m 152.33838,149.05427 c 0,11.56047 -4.16476,22.14822 -11.07575,30.3447 -0.41254,0.48928 -0.83489,0.97005 -1.26671,1.44199 -0.0435,0.0474 0.0437,-0.0473 0,0 -8.60635,9.32936 -21.0657,15.31504 -34.75927,15.31504 -26.013576,0 -47.101746,-21.08816 -47.101747,-47.10173 10e-7,-26.01356 21.088171,-47.10173 47.101747,-47.10173 26.01356,0 47.10173,21.08817 47.10173,47.10173 z"
       sodipodi:nodetypes="ssssssss"
       inkscape:label="Cercle" /><path
       id="path1481"
       style="display:inline;opacity:1;fill:#000000;fill-opacity:1;stroke-width:1"
       d="m 86.945597,92.092053 c -0.266381,0.09548 -0.57974,0.254135 -0.759643,0.327112 2.584225,6.644162 5.64256,12.443975 7.608838,18.767845 0.349374,1.17009 0.59711,2.30285 0.662492,3.35225 -4.4e-4,0.007 5.03e-4,0.0168 0,0.0238 -0.03337,0.4603 -0.08951,0.58773 -0.158647,0.65939 -0.09411,0.0975 -0.212749,-0.009 -0.33228,-0.45475 -0.654995,-2.44049 -2.013081,-5.55689 -3.260266,-7.48171 l -1.419035,-2.18953 c -0.584122,-0.68106 -0.650078,-0.25805 -0.60358,0.29765 0.319841,1.5604 0.479144,3.52519 1.384928,4.87619 0.11171,0.14553 0.882255,1.55582 1.71204,3.13418 1.340855,2.55048 1.465803,2.91846 1.125513,3.30729 -0.21057,0.24062 -0.588916,0.85442 -0.840776,1.36374 -0.452505,0.91508 -2.192027,2.91042 -2.537312,2.91042 -0.31142,0 -1.331341,-2.64904 -1.139466,-2.95951 -2.594066,1.06433 -5.85896,5.35046 -7.679634,7.53339 l 1.271757,1.10329 1.27124,1.10277 -1.050582,1.50017 c -0.577845,0.82492 -1.199391,1.85937 -1.381311,2.29857 -0.18191,0.4392 -0.405637,0.7973 -0.497127,0.7953 -0.0915,-0.002 -0.691886,-0.30407 -1.334286,-0.67128 -0.642395,-0.36723 -1.249888,-0.5737 -1.349788,-0.4594 -0.669825,0.76643 -2.641699,7.61008 -2.641699,9.16843 0,0.25119 0.469643,0.29751 1.455208,0.42065 l 1.455208,0.31419 v 5.51801 h -1.5875 -1.5875 l 0.0047,0.99219 c 0.008,1.52399 0.491532,4.54338 0.971517,6.06784 l 0.432015,1.37201 1.346171,-0.51211 c 1.69795,-0.64537 1.651363,-0.65039 1.866553,0.21601 0.0994,0.40018 0.528754,1.60001 0.954464,2.66598 0.425695,1.06603 0.774113,1.97849 0.774113,2.02779 0,0.0493 -0.595332,0.45561 -1.322917,0.9033 -0.727595,0.44761 -1.322917,0.85162 -1.322917,0.89762 0,0.046 1.42878,3.09623 3.175,6.7784 1.74623,3.68222 3.222026,6.93159 3.222026,7.04866 -1.789723,0.0727 -3.252211,-0.0571 -5.206401,-0.0258 -0.05153,1.26746 -0.103555,2.58142 -0.155546,3.84886 H 78.70894 c -0.729085,0 -1.595252,-0.57579 -1.595252,-1.0604 0,-0.58101 0.642215,-1.80177 1.49655,-2.84427 1.293815,-1.57895 1.107894,-2.2808 -0.752926,-2.83342 -0.752535,-0.22348 -1.68905,-0.40566 -2.08101,-0.40566 -0.844886,-0.0884 -1.584559,-0.16677 -2.427242,-0.11162 0.03355,-0.38136 0.05813,-0.7595 0.07131,-1.11053 l 0.176733,-4.70152 c 0.28375,-7.55627 0.09757,-13.31712 -0.196887,-15.14171 -0.09,-0.5577 -0.340652,-2.47523 -0.363802,-4.30878 -0.0403,-3.19344 -0.119655,-3.63774 -1.88464,-10.54406 -1.013395,-3.96529 -1.903577,-7.20933 -1.977657,-7.20938 -0.0741,-6e-5 -0.351543,0.96337 -0.615983,2.13992 -0.26445,1.17658 -0.958376,3.70622 -1.542541,5.62188 -2.18294,7.15884 -2.589014,8.6991 -2.887679,10.94352 -0.63341,4.75967 0.0812,7.54527 3.278869,12.77958 2.10972,3.45353 4.134448,7.62377 4.774903,9.83144 0.07365,0.25388 0.143115,0.50008 0.204122,0.72192 0.08623,0.30944 0.179193,0.6698 0.274401,1.02267 -0.300361,-0.0234 -0.593015,-0.0109 -0.879532,0.0155 -0.680388,0.0662 -1.380679,0.1716 -1.989026,0.34675 -0.687387,0.19992 -1.32015,0.47783 -1.679484,0.75551 -0.353175,0.2398 -0.196105,0.45451 -0.06305,0.76067 2.909448,4.96738 6.752169,9.00401 10.961987,12.11282 19.287045,13.38106 43.235186,10.56397 58.998566,-6.23118 1.74292,-1.88359 3.3375,-3.73168 4.2959,-5.88164 0.13307,-0.30616 0.29013,-0.52087 -0.0631,-0.76067 -0.35933,-0.27768 -0.99209,-0.55559 -1.67948,-0.75551 -0.60835,-0.17515 -1.30864,-0.28055 -1.98903,-0.34675 -0.28652,-0.0264 -0.57917,-0.0389 -0.87953,-0.0155 0.0952,-0.35287 0.1882,-0.71323 0.2744,-1.02267 0.061,-0.22184 0.13042,-0.46804 0.20412,-0.72192 0.64046,-2.20767 2.66519,-6.37791 4.7749,-9.83144 3.19767,-5.23431 3.91228,-8.01991 3.27887,-12.77958 -0.29867,-2.24442 -0.70474,-3.78468 -2.88768,-10.94352 -0.58417,-1.91566 -1.27809,-4.4453 -1.54254,-5.62188 -0.26444,-1.17655 -0.54188,-2.13998 -0.61598,-2.13992 -0.0741,5e-5 -0.96427,3.24409 -1.97766,7.20938 -1.76499,6.90632 -1.84434,7.35062 -1.88464,10.54406 -0.0231,1.83355 -0.2738,3.75108 -0.3638,4.30878 -0.29448,1.82459 -0.48064,7.58544 -0.19689,15.14171 l 0.17674,4.70152 c 0.0132,0.35103 0.0378,0.72917 0.0713,1.11053 -0.84268,-0.0551 -1.58235,0.0232 -2.42724,0.11162 -0.39196,0 -1.32848,0.18218 -2.08101,0.40566 -1.86082,0.55262 -2.04674,1.25447 -0.75293,2.83342 0.85434,1.0425 1.49655,2.26326 1.49655,2.84427 0,0.48461 -0.86616,1.0604 -1.59525,1.0604 h -0.76223 c -0.052,-1.26744 -0.10404,-2.5814 -0.15554,-3.84886 -1.95419,-0.0313 -3.41668,0.0985 -5.2064,0.0258 0,-0.11707 1.47579,-3.36644 3.22202,-7.04866 1.74622,-3.68217 3.175,-6.7324 3.175,-6.7784 0,-0.046 -0.59531,-0.45001 -1.32291,-0.89762 -0.72758,-0.44769 -1.32292,-0.854 -1.32292,-0.9033 0,-0.0493 0.34841,-0.96176 0.77411,-2.02779 0.42571,-1.06597 0.85507,-2.2658 0.95447,-2.66598 0.21519,-0.8664 0.1686,-0.86138 1.86655,-0.21601 l 1.34617,0.51211 0.43201,-1.37201 c 0.47999,-1.52446 0.96352,-4.54385 0.97152,-6.06784 l 0.005,-0.99219 h -1.5875 -1.5875 v -5.51801 l 1.45521,-0.31419 c 0.98556,-0.12314 1.45521,-0.16946 1.45521,-0.42065 0,-1.55835 -1.97187,-8.402 -2.6417,-9.16843 -0.0999,-0.1143 -0.7074,0.0922 -1.34979,0.4594 -0.6424,0.36721 -1.24278,0.66928 -1.33428,0.67128 -0.0915,0.002 -0.31522,-0.3561 -0.49713,-0.7953 -0.18192,-0.4392 -0.80346,-1.47365 -1.38131,-2.29857 l -1.05058,-1.50017 1.27124,-1.10277 1.27175,-1.10329 c -1.82067,-2.18293 -5.08556,-6.46906 -7.67963,-7.53339 0.19188,0.31047 -0.82805,2.95951 -1.13947,2.95951 -0.34529,0 -2.08481,-1.99534 -2.53731,-2.91042 -0.25186,-0.50932 -0.63021,-1.12312 -0.84077,-1.36374 -0.34029,-0.38883 -0.21534,-0.75681 1.12551,-3.30729 0.82979,-1.57836 1.60033,-2.98865 1.71204,-3.13418 0.90579,-1.351 1.06509,-3.31579 1.38493,-4.87619 0.0465,-0.5557 -0.0195,-0.97871 -0.60358,-0.29765 l -1.41904,2.18953 c -1.24719,1.92482 -2.60527,5.04122 -3.26027,7.48171 -0.11953,0.44575 -0.23817,0.55225 -0.33227,0.45475 -0.0692,-0.0717 -0.12525,-0.19909 -0.15865,-0.65939 -5e-4,-0.007 4.4e-4,-0.0168 0,-0.0238 0.0654,-1.0494 0.31312,-2.18216 0.66249,-3.35225 1.96628,-6.32387 5.02461,-12.123683 7.60884,-18.767845 -0.1799,-0.07298 -0.49327,-0.231632 -0.75965,-0.327112 -2.58328,5.765247 -5.275,12.655577 -8.20466,19.104257 -0.36036,0.85187 -0.61884,1.47347 -0.88367,2.11047 l -0.43615,1.01802 0.0124,0.002 c -0.87723,2.14944 -1.19182,3.10202 -1.56734,4.52583 -0.61515,2.33236 -0.66038,5.31019 -0.11472,7.55716 0.21203,0.87311 0.46482,3.52704 0.56172,5.89731 0.0969,2.37037 0.2815,4.37491 0.41031,4.45451 0.43226,0.26715 0.89596,-0.39653 1.25419,-1.7942 0.19554,-0.76299 0.69197,-1.95803 1.10329,-2.65566 0.95355,-1.35266 1.44818,-2.84105 1.69344,-4.31498 0.3768,-0.0953 1.09701,0.91505 2.53524,2.43965 7.51083,8.1355 8.04336,28.37808 -4.83588,32.28795 -0.55573,0.0745 -1.01027,0.25473 -1.01027,0.40101 1.00735,5.23333 2.40884,6.93483 3.50934,11.88093 -0.80746,0.008 -2.03572,0.0439 -2.87682,-0.0119 -0.10338,-0.0844 -0.15496,-0.20762 -0.19896,-0.38499 -0.90215,-3.74853 -1.36461,-6.75138 -2.23345,-10.36422 l -0.25115,-1.02733 c -4.47161,-0.13334 -8.9255,-0.0466 -13.397116,0 l -0.251147,1.02733 c -0.868843,3.61284 -1.331305,6.61569 -2.233455,10.36422 -0.04402,0.17737 -0.09608,0.30063 -0.199471,0.38499 -0.841112,0.0558 -2.069374,0.02 -2.876827,0.0119 1.100492,-4.9461 2.502511,-6.6476 3.509863,-11.88093 0,-0.14628 -0.454549,-0.32651 -1.010274,-0.40101 -12.879242,-3.90987 -12.346717,-24.15245 -4.835881,-32.28795 1.438229,-1.5246 2.157919,-2.53498 2.534729,-2.43965 0.245261,1.47393 0.740404,2.96232 1.693954,4.31498 0.411315,0.69763 0.907746,1.89267 1.103291,2.65566 0.35823,1.39767 0.821932,2.06135 1.254187,1.7942 0.12881,-0.0796 0.313421,-2.08414 0.410311,-4.45451 0.0969,-2.37027 0.349693,-5.0242 0.561723,-5.89731 0.54566,-2.24697 0.500428,-5.2248 -0.114722,-7.55716 -0.375517,-1.42381 -0.69011,-2.37639 -1.567346,-4.52583 l 0.0124,-0.002 -0.43615,-1.01802 c -0.264822,-0.637 -0.523307,-1.2586 -0.883667,-2.11047 -2.92967,-6.44868 -5.621379,-13.33901 -8.204667,-19.104257 z M 69.16012,131.03955 c 0.0907,0 0.874657,2.76827 1.742012,6.15156 1.544035,6.02271 1.576407,6.22083 1.535307,9.45885 -0.0289,2.27649 -0.268638,4.07865 -0.623218,5.49011 -0.28331,1.12776 -0.417039,1.68672 -0.297139,1.68672 0.967744,-1.69676 0.812043,-2.19115 1.154968,-3.34037 0.207924,1.19407 0.294283,2.37085 0.371037,3.53105 0.195493,2.97265 0.164922,4.67219 0.152445,5.9893 -0.01622,1.71228 -0.06987,3.03309 -0.160713,5.16403 -0.11406,2.54657 -0.07087,4.85904 -0.105937,4.89634 -0.0351,0.0373 -0.378003,-0.63737 -0.560173,-1.25677 -0.514395,-1.74903 -2.730196,-6.17017 -4.410066,-8.79895 -4.41342,-6.90645 -4.549272,-10.02436 -0.943612,-21.69583 0.719275,-2.32829 1.458957,-4.91795 1.643827,-5.75469 0.18489,-0.83668 0.410532,-1.52135 0.501262,-1.52135 z m 72.03436,0 c 0.0907,0 0.31637,0.68467 0.50126,1.52135 0.18487,0.83674 0.92455,3.4264 1.64383,5.75469 3.60566,11.67147 3.46982,14.78938 -0.94361,21.69583 -1.67987,2.62878 -3.89568,7.04992 -4.41007,8.79895 -0.18217,0.6194 -0.52507,1.29407 -0.56017,1.25677 -0.035,-0.0373 0.008,-2.34977 -0.10594,-4.89634 -0.0908,-2.13094 -0.14451,-3.45175 -0.16071,-5.16403 -0.0125,-1.31711 -0.043,-3.01665 0.15245,-5.9893 0.0768,-1.1602 0.1631,-2.33698 0.37103,-3.53105 0.34292,1.14922 0.18723,1.64361 1.15497,3.34037 0.1199,0 -0.0138,-0.55896 -0.29714,-1.68672 -0.35458,-1.41146 -0.59432,-3.21362 -0.62322,-5.49011 -0.0411,-3.23802 -0.009,-3.43614 1.53531,-9.45885 0.86736,-3.38329 1.65131,-6.15156 1.74201,-6.15156 z m -34.48523,34.43769 c 0.80083,0.41207 1.76723,1.27369 2.63601,2.35024 0.75436,0.93474 1.32915,1.74147 1.27745,1.79317 -0.0517,0.0517 -0.87851,-0.5072 -1.83762,-1.2423 -3.11728,-2.39913 -4.41225,-2.13066 -7.21558,0 -0.9591,0.7351 -1.785913,1.294 -1.837613,1.2423 -0.0517,-0.0517 0.523083,-0.85843 1.277443,-1.79317 0.86877,-1.07655 1.83518,-1.93817 2.63601,-2.35024 1.31683,-0.69007 1.88001,-0.60703 3.0639,0 z m 0.016,3.23598 c 0.79902,0.41319 3.29278,2.99017 3.78633,3.91242 0.15839,0.29597 -0.36262,-0.001 -1.20561,-0.68833 -0.81648,-0.66502 -1.95149,-1.44717 -2.52233,-1.7384 -1.31751,-0.68303 -1.96597,-0.62954 -3.21272,0 -0.57084,0.29123 -1.70586,1.07338 -2.52233,1.7384 -0.84299,0.6869 -1.364,0.9843 -1.205609,0.68833 0.493549,-0.92225 2.987309,-3.49923 3.786329,-3.91242 1.01898,-0.43957 2.12125,-0.48877 3.09594,0 z m 2.21898,4.91029 c 1.40123,1.5623 2.1198,2.62026 1.53324,2.25774 -0.17987,-0.11117 -1.08045,-0.77209 -2.00142,-1.46916 -2.6776,-1.98951 -4.12375,-1.85319 -6.59753,0 -0.92096,0.69707 -1.82156,1.35799 -2.001432,1.46916 -0.586561,0.36252 0.132012,-0.69544 1.533242,-2.25774 3.00612,-3.09545 5.04272,-2.7337 7.5339,0 z m -35.161157,-1.50172 c 0.496774,-0.003 1.006228,0.0573 1.402499,0.0915 3.16829,0.27493 4.639104,1.09829 3.073714,1.72083 -0.972975,0.38694 -6.758293,0.5463 -8.270813,0.22789 -1.437815,-0.30267 -1.808875,-0.62135 -1.357023,-1.16582 0.321685,-0.38762 1.361057,-0.66086 2.360062,-0.74621 0.607785,-0.0306 1.248896,-0.0439 1.812293,-0.0858 0.105594,0.35357 0.218516,0.75207 0.347782,1.02319 0.05912,-0.31501 0.104482,-0.69801 0.143661,-1.03714 0.158143,-0.0186 0.322234,-0.0273 0.487825,-0.0284 z m 62.788417,0 c 0.16559,0.001 0.32968,0.01 0.48782,0.0284 0.0392,0.33913 0.0846,0.72213 0.14366,1.03714 0.12927,-0.27112 0.2422,-0.66962 0.34779,-1.02319 0.5634,0.0419 1.2045,0.0552 1.81229,0.0858 0.999,0.0853 2.03837,0.35859 2.36006,0.74621 0.45185,0.54447 0.0808,0.86315 -1.35702,1.16582 -1.51252,0.31841 -7.29783,0.15905 -8.27081,-0.22789 -1.56539,-0.62254 -0.0946,-1.4459 3.07371,-1.72083 0.39628,-0.0342 0.90573,-0.0948 1.4025,-0.0915 z m -46.774407,0.14211 c 0.351878,9e-4 0.716847,0.008 1.104325,0.0279 0.25252,0.0142 0.631022,0.53663 0.926042,1.27899 0.27435,0.69032 0.530411,1.34334 0.583944,1.44436 0.0933,0.17605 -6.776558,0.10303 -6.985104,0.0858 -0.100492,-0.008 -0.0033,-0.3532 0.121957,-0.51211 0.125295,-0.15891 0.371493,-0.73536 0.547253,-1.28106 0.17577,-0.5457 0.459326,-0.99866 0.629936,-1.00666 1.077803,0.0184 2.016013,-0.0399 3.071647,-0.0372 z m 30.760397,0 c 1.05563,-0.003 1.99384,0.0556 3.07165,0.0372 0.17061,0.008 0.45416,0.46096 0.62993,1.00666 0.17576,0.5457 0.42197,1.12215 0.54726,1.28106 0.12509,0.15891 0.22244,0.50411 0.12195,0.51211 -0.20855,0.0172 -7.0784,0.0903 -6.9851,-0.0858 0.0535,-0.10102 0.30959,-0.75404 0.58394,-1.44436 0.29502,-0.74236 0.67352,-1.26479 0.92604,-1.27899 0.38748,-0.0195 0.75245,-0.027 1.10433,-0.0279 z m -30.542839,5.11287 c 0.13778,0.0442 0.610986,0.39352 1.142566,0.84853 1.25656,1.0756 4.619936,2.88589 6.196521,3.33519 5.195072,1.31562 10.504802,1.43169 15.647102,0 1.57659,-0.4493 4.93997,-2.25959 6.19653,-3.33519 0.53157,-0.45501 1.00478,-0.80433 1.14256,-0.84853 0.0197,-0.006 0.0327,-0.006 0.0377,5.2e-4 0.0415,0.0537 0.67956,1.61113 1.41748,3.46077 l 1.34152,3.3631 c -0.91534,0.53649 -1.5723,0.97536 -2.52078,1.34359 -0.52241,-1.29158 -0.83187,-3.21096 -1.25935,-3.82096 -0.82994,0.39265 -1.80275,0.81105 -2.8267,1.43661 0.2678,1.49382 0.56588,2.64331 0.86765,4.02352 -0.80941,0.29856 -1.66816,0.75011 -2.39624,0.80771 -0.22616,-1.13614 -0.34107,-2.51426 -0.62787,-4.0101 -0.1822,-0.0296 -0.81705,0.19374 -2.89078,0.70539 -0.16342,0.61592 0.46131,2.82394 0.35812,4.53409 -0.84418,0.0607 -1.54928,0.31888 -2.34353,0.34158 -0.29589,-1.43834 -0.28448,-4.39678 -0.40721,-4.31188 -0.62725,0.0215 -2.1189,0.24274 -2.57193,0.29404 v 4.35759 h -2.68149 v -4.35759 c -0.45303,-0.0513 -1.94522,-0.27255 -2.57246,-0.29404 -0.12273,-0.0849 -0.1108,2.87354 -0.40669,4.31188 -0.79425,-0.0227 -1.499867,-0.28091 -2.344043,-0.34158 -0.103195,-1.71015 0.522049,-3.91817 0.358634,-4.53409 -2.073735,-0.51165 -2.708574,-0.73496 -2.890779,-0.70539 -0.286795,1.49584 -0.401706,2.87396 -0.627869,4.0101 -0.728075,-0.0576 -1.586827,-0.50915 -2.396236,-0.80771 0.301775,-1.38021 0.599331,-2.5297 0.86713,-4.02352 -1.023948,-0.62556 -1.996761,-1.04396 -2.826701,-1.43661 -0.427479,0.61 -0.736433,2.52938 -1.258838,3.82096 -0.948481,-0.36823 -1.605437,-0.8071 -2.520776,-1.34359 l 1.34152,-3.3631 c 0.73792,-1.84964 1.375955,-3.40707 1.417485,-3.46077 0.005,-0.007 0.01802,-0.007 0.03772,-5.2e-4 z"
       sodipodi:nodetypes="sccccccccccsssscccccssscsccccccsccscscsscccsscsccccssssscccsccccccccccccccccsssssssccccscsscccsscsssccsccccccssssscccccsssscccccssccccccccsssssccccccccccccccccccccssssscccccsssscccscsssscsscsssccscccssssccsccssccccccccscccsccsccscsssccccsscsccssscsscsccsscsscscssscscsccsccccccccccccccccccccccccccccccccccccsc"
       inkscape:label="Gazelles" /><g
       id="g1930"
       inkscape:label="Blanc"
       style="display:inline"><path
         id="path1915"
         style="display:inline;opacity:1;fill:#ffffff;fill-opacity:1;fill-rule:evenodd;stroke:none;stroke-width:0.529167;stroke-linecap:round;stroke-miterlimit:6;stroke-dasharray:none;stroke-opacity:1;paint-order:markers stroke fill"
         d="m 136.57151,172.12179 c -0.12419,-8.2e-4 -0.24929,0.003 -0.37311,0.008 -0.12381,0.006 -0.24637,0.0138 -0.36586,0.0233 -0.239,0.019 -0.46539,0.0428 -0.66353,0.0599 -0.39604,0.0344 -0.7655,0.0771 -1.10588,0.12712 -0.34037,0.05 -0.65172,0.10723 -0.9312,0.17002 -0.13975,0.0314 -0.27127,0.0641 -0.39481,0.0982 -0.12354,0.034 -0.23904,0.0696 -0.34572,0.10593 -0.10668,0.0363 -0.20486,0.0734 -0.29404,0.11162 -0.0892,0.0382 -0.16928,0.0776 -0.24029,0.11731 -0.071,0.0397 -0.13281,0.08 -0.185,0.12092 -0.0522,0.0409 -0.0949,0.0823 -0.12764,0.12403 -0.0327,0.0417 -0.0556,0.0839 -0.0682,0.12609 -0.0126,0.0422 -0.0149,0.0844 -0.007,0.1266 0.008,0.0423 0.0272,0.0846 0.0568,0.12661 0.0296,0.042 0.0697,0.0837 0.12144,0.12506 0.0517,0.0413 0.11469,0.0822 0.18913,0.12247 0.0745,0.0403 0.16055,0.0799 0.25839,0.11886 0.0608,0.0242 0.14048,0.0474 0.23667,0.0698 0.0962,0.0223 0.20877,0.0437 0.3359,0.0641 0.25426,0.0408 0.56584,0.0774 0.91726,0.10955 0.35141,0.0322 0.74292,0.06 1.156,0.0827 0.41308,0.0226 0.84801,0.0401 1.28726,0.0522 0.43925,0.0121 0.88264,0.019 1.31258,0.0196 0.42994,6e-4 0.84631,-0.005 1.23145,-0.017 0.38514,-0.0119 0.73902,-0.0299 1.04386,-0.0553 0.15243,-0.0127 0.29289,-0.0272 0.41858,-0.0434 0.1257,-0.0162 0.23672,-0.0344 0.33125,-0.0543 0.17973,-0.0378 0.34302,-0.076 0.48989,-0.11472 0.14687,-0.0387 0.27727,-0.0779 0.39223,-0.11834 0.11496,-0.0405 0.21416,-0.082 0.29817,-0.12506 0.084,-0.043 0.1527,-0.088 0.2067,-0.13436 0.027,-0.0232 0.0506,-0.0466 0.0703,-0.0708 0.0197,-0.0242 0.0356,-0.0491 0.0481,-0.0744 0.0125,-0.0253 0.0215,-0.051 0.0269,-0.0775 0.005,-0.0265 0.007,-0.0533 0.006,-0.0811 -0.002,-0.0278 -0.007,-0.0566 -0.015,-0.0858 -0.008,-0.0292 -0.0205,-0.0592 -0.0357,-0.0899 -0.0303,-0.0614 -0.0738,-0.12573 -0.13023,-0.19379 -0.0402,-0.0485 -0.0918,-0.0953 -0.15296,-0.14004 -0.0612,-0.0447 -0.1317,-0.0874 -0.21084,-0.12816 -0.0791,-0.0407 -0.1668,-0.0793 -0.26097,-0.11576 -0.0942,-0.0364 -0.19504,-0.0705 -0.30127,-0.10232 -0.10623,-0.0319 -0.21798,-0.0614 -0.33331,-0.0884 -0.11534,-0.027 -0.23406,-0.0515 -0.35554,-0.0734 -0.24295,-0.0437 -0.49542,-0.0769 -0.74517,-0.0982 -0.3039,-0.0153 -0.61627,-0.0264 -0.92294,-0.0388 -0.30667,-0.0124 -0.60765,-0.0261 -0.88935,-0.047 -0.0528,0.17678 -0.10726,0.36489 -0.16485,0.5426 -0.0288,0.0889 -0.0585,0.17479 -0.0889,0.2558 -0.0304,0.081 -0.0617,0.15701 -0.0941,0.22479 -0.0295,-0.1575 -0.0554,-0.33201 -0.0791,-0.50953 -0.0236,-0.17752 -0.045,-0.35805 -0.0646,-0.52761 -0.15814,-0.0184 -0.32223,-0.0274 -0.48782,-0.0284 z" /><path
         id="path1913"
         style="display:inline;opacity:1;fill:#ffffff;fill-opacity:1;fill-rule:evenodd;stroke:none;stroke-width:0.529167;stroke-linecap:round;stroke-miterlimit:6;stroke-dasharray:none;stroke-opacity:1;paint-order:markers stroke fill"
         d="m 73.783093,172.12179 c -0.165591,0.001 -0.329682,0.01 -0.487825,0.0284 -0.01959,0.16956 -0.04097,0.35009 -0.0646,0.52761 -0.02363,0.17752 -0.0495,0.35203 -0.07906,0.50953 -0.03232,-0.0678 -0.06364,-0.14326 -0.09405,-0.22427 -0.03041,-0.081 -0.06009,-0.16746 -0.08888,-0.25632 -0.05759,-0.17771 -0.112051,-0.36582 -0.164848,-0.5426 -0.281698,0.0209 -0.582676,0.0346 -0.889352,0.047 -0.306675,0.0124 -0.619048,0.0235 -0.922941,0.0388 -0.249751,0.0213 -0.502221,0.0545 -0.745174,0.0982 -0.121476,0.0218 -0.240199,0.0464 -0.355534,0.0734 -0.115334,0.027 -0.22708,0.0565 -0.333313,0.0884 -0.106232,0.0319 -0.207105,0.0659 -0.301273,0.10232 -0.09417,0.0364 -0.181823,0.075 -0.260966,0.11576 -0.07914,0.0407 -0.149682,0.0834 -0.21084,0.12816 -0.06116,0.0447 -0.112752,0.0916 -0.152962,0.14004 -0.05648,0.0681 -0.09994,0.13237 -0.130225,0.19379 -0.01514,0.0307 -0.02724,0.0607 -0.03566,0.0899 -0.0084,0.0292 -0.01341,0.058 -0.01499,0.0858 -0.0016,0.0278 2.92e-4,0.0546 0.0057,0.0811 0.0054,0.0265 0.01439,0.0522 0.02687,0.0775 0.01248,0.0253 0.02838,0.0502 0.04806,0.0744 0.01968,0.0242 0.04328,0.0481 0.07028,0.0713 0.054,0.0464 0.122701,0.0908 0.206706,0.13384 0.084,0.043 0.183214,0.0846 0.298173,0.12506 0.11496,0.0405 0.245357,0.0796 0.392224,0.11834 0.146867,0.0387 0.310166,0.0769 0.489893,0.11472 0.09453,0.0199 0.20555,0.038 0.331246,0.0543 0.125695,0.0162 0.266156,0.0307 0.418579,0.0434 0.304845,0.0254 0.658727,0.0434 1.043864,0.0553 0.385137,0.0119 0.80151,0.0177 1.231449,0.017 0.42994,-5.9e-4 0.873328,-0.008 1.312582,-0.0196 0.439253,-0.0121 0.874181,-0.0296 1.287259,-0.0522 0.413079,-0.0226 0.80407,-0.05 1.155486,-0.0822 0.351415,-0.0322 0.66351,-0.0693 0.917773,-0.11007 0.127131,-0.0204 0.239708,-0.0417 0.335897,-0.0641 0.09619,-0.0223 0.175867,-0.0456 0.236678,-0.0698 0.09784,-0.0389 0.183939,-0.0786 0.258382,-0.11886 0.07444,-0.0403 0.137432,-0.0812 0.189136,-0.12247 0.0517,-0.0413 0.09182,-0.0831 0.121439,-0.12506 0.02962,-0.042 0.04866,-0.0844 0.05684,-0.12661 0.0082,-0.0422 0.0059,-0.0844 -0.0067,-0.1266 -0.01259,-0.0422 -0.03549,-0.0844 -0.06821,-0.12609 -0.03272,-0.0417 -0.07545,-0.0831 -0.127641,-0.12403 -0.05219,-0.0409 -0.113994,-0.0812 -0.185002,-0.12092 -0.07101,-0.0398 -0.151123,-0.0791 -0.240295,-0.11731 -0.08917,-0.0382 -0.187356,-0.0753 -0.294039,-0.11162 -0.106683,-0.0363 -0.222176,-0.0714 -0.345715,-0.10542 -0.12354,-0.034 -0.255066,-0.0673 -0.394808,-0.0987 -0.279485,-0.0628 -0.590835,-0.11997 -0.93121,-0.17002 -0.340375,-0.05 -0.70984,-0.0928 -1.105875,-0.12712 -0.198136,-0.0171 -0.424532,-0.0404 -0.663526,-0.0594 -0.119497,-0.009 -0.242057,-0.018 -0.365869,-0.0238 -0.123812,-0.006 -0.24891,-0.009 -0.373104,-0.008 z" /><path
         id="path1911"
         style="display:inline;opacity:1;fill:#ffffff;fill-opacity:1;fill-rule:evenodd;stroke:none;stroke-width:0.529167;stroke-linecap:round;stroke-miterlimit:6;stroke-dasharray:none;stroke-opacity:1;paint-order:markers stroke fill"
         d="m 105.37031,171.4376 c -0.14954,-0.006 -0.30027,1.8e-4 -0.45217,0.0176 -0.15189,0.0174 -0.30496,0.0464 -0.45992,0.0873 -0.15495,0.041 -0.31155,0.0936 -0.47025,0.15865 -0.1587,0.065 -0.31951,0.14236 -0.48266,0.23202 -0.16315,0.0897 -0.32884,0.19162 -0.49713,0.30645 -0.16829,0.11482 -0.33902,0.24241 -0.51314,0.38292 -0.17413,0.1405 -0.35162,0.29423 -0.53227,0.46095 -0.18066,0.16672 -0.36454,0.34656 -0.55242,0.54002 -0.35031,0.39058 -0.65788,0.74977 -0.91313,1.06298 -0.12762,0.15661 -0.2424,0.30167 -0.34261,0.43357 -0.10021,0.1319 -0.185946,0.25037 -0.256315,0.35398 -0.07037,0.10362 -0.125203,0.19232 -0.163297,0.26407 -0.03809,0.0717 -0.05966,0.12647 -0.06305,0.16278 -0.0017,0.0181 0.0013,0.0317 0.0088,0.0403 0.0074,0.009 0.0193,0.0127 0.03617,0.0114 0.03375,-0.003 0.08688,-0.026 0.160197,-0.0713 0.08994,-0.0556 0.360205,-0.24843 0.722955,-0.51469 0.36275,-0.26626 0.818,-0.60593 1.27848,-0.95447 0.15461,-0.11582 0.30503,-0.2248 0.45216,-0.32711 0.14714,-0.10231 0.29074,-0.1982 0.4315,-0.2868 0.14076,-0.0886 0.27896,-0.17026 0.41445,-0.24495 0.13549,-0.0747 0.26865,-0.142 0.39997,-0.20257 0.13133,-0.0606 0.26087,-0.11445 0.38913,-0.16071 0.12825,-0.0463 0.25507,-0.085 0.38137,-0.11679 0.1263,-0.0317 0.2518,-0.0563 0.37724,-0.0734 0.12543,-0.017 0.25104,-0.0268 0.37672,-0.0289 0.12568,-0.002 0.25176,0.004 0.37879,0.0165 0.12703,0.013 0.25499,0.0337 0.38447,0.062 0.12948,0.0283 0.26022,0.0642 0.39326,0.108 0.13303,0.0438 0.26797,0.0955 0.40566,0.15503 0.13769,0.0595 0.27822,0.12663 0.42168,0.20205 0.14345,0.0754 0.28997,0.15911 0.44028,0.25063 0.15031,0.0915 0.30422,0.19086 0.4625,0.29869 0.15828,0.10784 0.321,0.22396 0.48835,0.3483 0.46048,0.34854 0.91572,0.68821 1.27847,0.95447 0.36275,0.26626 0.63302,0.45911 0.72295,0.51469 0.0733,0.0453 0.12645,0.0686 0.1602,0.0713 0.0169,0.001 0.0287,-0.003 0.0362,-0.0114 0.007,-0.009 0.0105,-0.0222 0.009,-0.0403 -0.003,-0.0363 -0.0249,-0.091 -0.063,-0.16278 -0.0381,-0.0718 -0.0929,-0.16045 -0.16329,-0.26407 -0.0704,-0.10361 -0.15611,-0.22208 -0.25632,-0.35398 -0.10021,-0.1319 -0.21499,-0.27696 -0.34261,-0.43357 -0.25525,-0.31321 -0.56282,-0.6724 -0.91313,-1.06298 -0.15569,-0.17086 -0.30949,-0.33266 -0.46198,-0.48472 -0.1525,-0.15206 -0.30374,-0.29463 -0.45372,-0.42737 -0.14999,-0.13273 -0.29883,-0.25557 -0.447,-0.36845 -0.14818,-0.11288 -0.29581,-0.2155 -0.44287,-0.30799 -0.14706,-0.0925 -0.29365,-0.17492 -0.44028,-0.2465 -0.14664,-0.0716 -0.29338,-0.13228 -0.44029,-0.18242 -0.1469,-0.0501 -0.29395,-0.0897 -0.44183,-0.11782 -0.14788,-0.0282 -0.29643,-0.045 -0.44597,-0.0506 z" /><path
         id="path1909"
         style="display:inline;opacity:1;fill:#ffffff;fill-opacity:1;fill-rule:evenodd;stroke:none;stroke-width:0.529167;stroke-linecap:round;stroke-miterlimit:6;stroke-dasharray:none;stroke-opacity:1;paint-order:markers stroke fill"
         d="m 105.1941,168.36492 c -0.1312,0.002 -0.26282,0.0106 -0.3943,0.0263 -0.13147,0.0158 -0.26284,0.0383 -0.39377,0.0677 -0.13093,0.0294 -0.26163,0.0655 -0.39119,0.108 -0.12956,0.0425 -0.25813,0.0913 -0.38551,0.14625 -0.0499,0.0258 -0.1067,0.06 -0.16898,0.1018 -0.0623,0.0418 -0.13028,0.0914 -0.20309,0.14728 -0.14562,0.11181 -0.31037,0.24964 -0.48731,0.40669 -0.17693,0.15705 -0.36584,0.333 -0.55965,0.52038 -0.19381,0.18738 -0.39234,0.38632 -0.5886,0.58911 -0.19625,0.2028 -0.39037,0.4096 -0.57464,0.61289 -0.18426,0.20329 -0.35892,0.40334 -0.51676,0.59221 -0.15784,0.18887 -0.2985,0.36653 -0.41548,0.52606 -0.116984,0.15954 -0.210125,0.30072 -0.271819,0.416 -0.0198,0.037 -0.02916,0.0649 -0.02842,0.0837 3.67e-4,0.009 0.0035,0.0167 0.0088,0.0217 0.0052,0.005 0.0128,0.008 0.02274,0.008 0.01987,0.001 0.04869,-0.005 0.0863,-0.0202 0.03761,-0.0151 0.08402,-0.0384 0.137979,-0.0692 0.10791,-0.0616 0.24694,-0.15404 0.41186,-0.27389 0.16491,-0.11985 0.35563,-0.26701 0.56637,-0.43873 0.20412,-0.16626 0.42822,-0.33969 0.65836,-0.51108 0.23014,-0.1714 0.46646,-0.34063 0.69505,-0.49816 0.22858,-0.15754 0.4491,-0.30373 0.64854,-0.4284 0.19944,-0.12467 0.37767,-0.22795 0.52038,-0.30076 0.15584,-0.0787 0.30221,-0.14839 0.44183,-0.20877 0.13962,-0.0604 0.27266,-0.11153 0.40101,-0.15296 0.12835,-0.0414 0.25211,-0.0732 0.37414,-0.0951 0.12203,-0.0219 0.24211,-0.0335 0.36277,-0.0351 0.12066,-0.002 0.24214,0.007 0.36638,0.0258 0.12425,0.0191 0.25119,0.0488 0.38396,0.0894 0.13277,0.0406 0.27129,0.0924 0.41755,0.15503 0.14625,0.0627 0.30039,0.13631 0.46508,0.22169 0.14271,0.0728 0.32043,0.17609 0.51987,0.30076 0.19944,0.12467 0.42047,0.27086 0.64905,0.4284 0.22859,0.15753 0.46491,0.32676 0.69505,0.49816 0.23015,0.17139 0.45424,0.34482 0.65836,0.51108 0.21075,0.17183 0.40146,0.31938 0.56637,0.43925 0.16492,0.11987 0.30395,0.2123 0.41186,0.27388 0.054,0.0308 0.10037,0.0537 0.13798,0.0687 0.0376,0.015 0.0664,0.0222 0.0863,0.0207 0.01,-7.6e-4 0.0175,-0.004 0.0227,-0.009 0.005,-0.005 0.008,-0.0123 0.009,-0.0217 7.4e-4,-0.0189 -0.009,-0.0467 -0.0284,-0.0837 -0.0617,-0.11528 -0.15483,-0.25646 -0.27182,-0.416 -0.11698,-0.15953 -0.25764,-0.33719 -0.41548,-0.52606 -0.15784,-0.18887 -0.3325,-0.38892 -0.51676,-0.59221 -0.18426,-0.20329 -0.37839,-0.41009 -0.57464,-0.61289 -0.19625,-0.20279 -0.39479,-0.40173 -0.5886,-0.58911 -0.19381,-0.18738 -0.38272,-0.36333 -0.55965,-0.52038 -0.17693,-0.15705 -0.34169,-0.29488 -0.48731,-0.40669 -0.0728,-0.0559 -0.14081,-0.10548 -0.20309,-0.14728 -0.0623,-0.0418 -0.11904,-0.076 -0.16898,-0.1018 -0.12184,-0.0611 -0.24563,-0.11356 -0.37104,-0.15813 -0.12541,-0.0446 -0.25269,-0.0815 -0.38085,-0.11007 -0.12817,-0.0286 -0.25749,-0.0493 -0.38758,-0.0625 -0.13009,-0.0133 -0.26051,-0.0191 -0.3917,-0.0176 z" /><path
         id="path1907"
         style="display:inline;opacity:1;fill:#ffffff;fill-opacity:1;fill-rule:evenodd;stroke:none;stroke-width:0.529167;stroke-linecap:round;stroke-miterlimit:6;stroke-dasharray:none;stroke-opacity:1;paint-order:markers stroke fill"
         d="m 105.1941,168.36492 c 0.13119,-0.002 0.26161,0.004 0.3917,0.0176 0.13009,0.0132 0.25941,0.0339 0.38758,0.0625 0.12816,0.0286 0.25544,0.0655 0.38085,0.11007 0.12541,0.0446 0.2492,0.097 0.37104,0.15813 0.0499,0.0258 0.1067,0.06 0.16898,0.1018 0.0623,0.0418 0.13028,0.0914 0.20309,0.14728 0.14562,0.11181 0.31038,0.24964 0.48731,0.40669 0.17693,0.15705 0.36584,0.333 0.55965,0.52038 0.19381,0.18738 0.39235,0.38632 0.5886,0.58911 0.19625,0.2028 0.39038,0.4096 0.57464,0.61289 0.18426,0.20329 0.35892,0.40334 0.51676,0.59221 0.15784,0.18887 0.2985,0.36653 0.41548,0.52606 0.11699,0.15954 0.21013,0.30072 0.27182,0.416 0.0198,0.037 0.0292,0.0649 0.0284,0.0837 -3.6e-4,0.009 -0.004,0.0167 -0.009,0.0217 -0.005,0.005 -0.0128,0.008 -0.0227,0.009 -0.0199,0.002 -0.0487,-0.006 -0.0863,-0.0207 -0.0376,-0.015 -0.084,-0.0379 -0.13798,-0.0687 -0.10791,-0.0616 -0.24694,-0.15401 -0.41186,-0.27388 -0.16491,-0.11987 -0.35562,-0.26742 -0.56637,-0.43925 -0.20412,-0.16626 -0.42821,-0.33969 -0.65836,-0.51108 -0.23014,-0.1714 -0.46646,-0.34063 -0.69505,-0.49816 -0.22858,-0.15754 -0.44961,-0.30373 -0.64905,-0.4284 -0.19944,-0.12467 -0.37716,-0.22795 -0.51987,-0.30076 -0.16469,-0.0854 -0.31883,-0.15901 -0.46508,-0.22169 -0.14626,-0.0627 -0.28478,-0.11443 -0.41755,-0.15503 -0.13277,-0.0406 -0.25971,-0.0703 -0.38396,-0.0894 -0.12424,-0.0191 -0.24572,-0.0275 -0.36638,-0.0258 -0.12066,0.002 -0.24074,0.0133 -0.36277,0.0351 -0.12203,0.0219 -0.24579,0.0537 -0.37414,0.0951 -0.12835,0.0414 -0.26139,0.0926 -0.40101,0.15296 -0.13962,0.0604 -0.28599,0.13008 -0.44183,0.20877 -0.14271,0.0728 -0.32094,0.17609 -0.52038,0.30076 -0.19944,0.12467 -0.41996,0.27086 -0.64854,0.4284 -0.22859,0.15753 -0.46491,0.32676 -0.69505,0.49816 -0.23014,0.17139 -0.45424,0.34482 -0.65836,0.51108 -0.21074,0.17172 -0.40146,0.31888 -0.56637,0.43873 -0.16492,0.11985 -0.30395,0.21228 -0.41186,0.27389 -0.054,0.0308 -0.100366,0.0542 -0.137978,0.0692 -0.03761,0.0151 -0.06643,0.0217 -0.0863,0.0202 -0.0099,-7.5e-4 -0.0175,-0.003 -0.02274,-0.008 -0.0052,-0.005 -0.0084,-0.0123 -0.0088,-0.0217 -7.34e-4,-0.0189 0.0086,-0.0467 0.02842,-0.0837 0.06169,-0.11528 0.154835,-0.25646 0.271818,-0.416 0.11698,-0.15953 0.25764,-0.33719 0.41548,-0.52606 0.15784,-0.18887 0.3325,-0.38892 0.51676,-0.59221 0.18427,-0.20329 0.37839,-0.41009 0.57464,-0.61289 0.19626,-0.20279 0.39479,-0.40173 0.5886,-0.58911 0.19381,-0.18738 0.38272,-0.36333 0.55965,-0.52038 0.17694,-0.15705 0.34169,-0.29488 0.48731,-0.40669 0.0728,-0.0559 0.14081,-0.10548 0.20309,-0.14728 0.0623,-0.0418 0.11904,-0.076 0.16898,-0.1018 0.12738,-0.055 0.25595,-0.10379 0.38551,-0.14625 0.12956,-0.0425 0.26026,-0.0786 0.39119,-0.108 0.13093,-0.0294 0.2623,-0.0519 0.39377,-0.0677 0.13148,-0.0157 0.2631,-0.0248 0.3943,-0.0263 z m 0.17621,3.07268 c 0.14954,0.006 0.29809,0.0225 0.44597,0.0506 0.14788,0.0282 0.29493,0.0677 0.44183,0.11782 0.14691,0.0501 0.29365,0.11084 0.44029,0.18242 0.14663,0.0716 0.29322,0.154 0.44028,0.2465 0.14706,0.0925 0.29469,0.19511 0.44287,0.30799 0.14817,0.11288 0.29701,0.23572 0.447,0.36845 0.14998,0.13274 0.30122,0.27531 0.45372,0.42737 0.15249,0.15206 0.30629,0.31386 0.46198,0.48472 0.35031,0.39058 0.65788,0.74977 0.91313,1.06298 0.12762,0.15661 0.2424,0.30167 0.34261,0.43357 0.10021,0.1319 0.18595,0.25037 0.25632,0.35398 0.0704,0.10362 0.1252,0.19232 0.16329,0.26407 0.0381,0.0717 0.0597,0.12647 0.063,0.16278 0.002,0.0181 -10e-4,0.0317 -0.009,0.0403 -0.007,0.009 -0.0193,0.0127 -0.0362,0.0114 -0.0338,-0.003 -0.0869,-0.026 -0.1602,-0.0713 -0.0899,-0.0556 -0.3602,-0.24843 -0.72295,-0.51469 -0.36275,-0.26626 -0.81799,-0.60593 -1.27847,-0.95447 -0.16735,-0.12434 -0.33007,-0.24046 -0.48835,-0.3483 -0.15828,-0.10783 -0.31219,-0.20716 -0.4625,-0.29869 -0.15031,-0.0915 -0.29683,-0.17521 -0.44028,-0.25063 -0.14346,-0.0754 -0.28399,-0.14254 -0.42168,-0.20205 -0.13769,-0.0595 -0.27263,-0.11123 -0.40566,-0.15503 -0.13304,-0.0438 -0.26378,-0.0797 -0.39326,-0.108 -0.12948,-0.0283 -0.25744,-0.049 -0.38447,-0.062 -0.12703,-0.013 -0.25311,-0.0187 -0.37879,-0.0165 -0.12568,0.002 -0.25129,0.0119 -0.37672,0.0289 -0.12544,0.017 -0.25094,0.0416 -0.37724,0.0734 -0.1263,0.0317 -0.25312,0.0705 -0.38137,0.11679 -0.12826,0.0463 -0.2578,0.10013 -0.38913,0.16071 -0.13132,0.0606 -0.26448,0.12788 -0.39997,0.20257 -0.13549,0.0747 -0.27369,0.15635 -0.41445,0.24495 -0.14076,0.0886 -0.28436,0.18449 -0.4315,0.2868 -0.14713,0.10231 -0.29755,0.21129 -0.45216,0.32711 -0.46048,0.34854 -0.91573,0.68821 -1.27848,0.95447 -0.36275,0.26626 -0.633016,0.45911 -0.722952,0.51469 -0.07332,0.0453 -0.126447,0.0686 -0.160197,0.0713 -0.01687,10e-4 -0.02873,-0.003 -0.03617,-0.0114 -0.0074,-0.009 -0.01048,-0.0222 -0.0088,-0.0403 0.0034,-0.0363 0.02495,-0.091 0.06305,-0.16278 0.03809,-0.0718 0.09293,-0.16045 0.163297,-0.26407 0.07037,-0.10361 0.156102,-0.22208 0.256312,-0.35398 0.10021,-0.1319 0.21499,-0.27696 0.34261,-0.43357 0.25525,-0.31321 0.56282,-0.6724 0.91313,-1.06298 0.18788,-0.19346 0.37176,-0.3733 0.55242,-0.54002 0.18065,-0.16672 0.35814,-0.32045 0.53227,-0.46095 0.17412,-0.14051 0.34485,-0.2681 0.51314,-0.38292 0.16829,-0.11483 0.33398,-0.21678 0.49713,-0.30645 0.16315,-0.0897 0.32396,-0.16698 0.48266,-0.23202 0.1587,-0.0651 0.3153,-0.1177 0.47025,-0.15865 0.15496,-0.0409 0.30803,-0.0699 0.45992,-0.0873 0.1519,-0.0174 0.30263,-0.0232 0.45217,-0.0176 z" /><path
         id="path1905"
         style="display:inline;opacity:1;fill:#ffffff;fill-opacity:1;fill-rule:evenodd;stroke:none;stroke-width:0.529167;stroke-linecap:round;stroke-miterlimit:6;stroke-dasharray:none;stroke-opacity:1;paint-order:markers stroke fill"
         d="m 105.22717,164.99096 c -0.11335,-0.003 -0.22761,0.005 -0.34572,0.0227 -0.1181,0.0182 -0.24021,0.0469 -0.36845,0.0868 -0.12824,0.0399 -0.26296,0.0909 -0.40669,0.15348 -0.14374,0.0626 -0.29635,0.13698 -0.46096,0.22324 -0.1001,0.0515 -0.20271,0.11008 -0.30747,0.17518 -0.10477,0.0651 -0.21148,0.13669 -0.31988,0.21446 -0.10839,0.0778 -0.21869,0.16162 -0.32969,0.25115 -0.111,0.0895 -0.22281,0.18488 -0.33538,0.28525 -0.11258,0.10037 -0.22588,0.20596 -0.339,0.31626 -0.11312,0.11029 -0.22636,0.22538 -0.339,0.34468 -0.11264,0.1193 -0.22476,0.24261 -0.3359,0.37 -0.11113,0.1274 -0.2211,0.25869 -0.32969,0.39326 -0.18859,0.23369 -0.36587,0.45926 -0.52503,0.66714 -0.15916,0.20789 -0.30024,0.3982 -0.416,0.56069 -0.115763,0.1625 -0.20618,0.29731 -0.264583,0.39481 -0.0292,0.0488 -0.05029,0.088 -0.06253,0.11679 -0.01224,0.0288 -0.01576,0.0473 -0.0093,0.0537 0.0065,0.006 0.02483,0.004 0.05426,-0.008 0.02943,-0.0118 0.07,-0.0322 0.11989,-0.0605 0.09977,-0.0566 0.238103,-0.14477 0.404623,-0.25734 0.16653,-0.11258 0.36093,-0.24967 0.57413,-0.40463 0.21319,-0.15496 0.44494,-0.32782 0.68471,-0.5116 0.17521,-0.13316 0.34478,-0.25881 0.50901,-0.37724 0.16424,-0.11842 0.32312,-0.22951 0.47801,-0.33279 0.15489,-0.10328 0.30551,-0.19905 0.45269,-0.28681 0.14717,-0.0877 0.29093,-0.16743 0.43201,-0.23926 0.14108,-0.0718 0.27938,-0.13569 0.416,-0.1912 0.13661,-0.0555 0.27136,-0.1028 0.40514,-0.14159 0.13378,-0.0388 0.26689,-0.0693 0.39946,-0.0909 0.13256,-0.0217 0.26493,-0.0346 0.39791,-0.0388 0.13297,-0.004 0.26651,2.5e-4 0.40152,0.0139 0.13502,0.0137 0.27111,0.0367 0.4098,0.0687 0.13868,0.032 0.27977,0.0729 0.42374,0.12351 0.14398,0.0507 0.29094,0.11114 0.44184,0.18087 0.15089,0.0697 0.30565,0.14903 0.46509,0.23822 0.15943,0.0892 0.3239,0.18809 0.49351,0.29714 0.1696,0.10905 0.34466,0.2283 0.52606,0.3576 0.18141,0.12931 0.36896,0.26864 0.56379,0.41858 0.23978,0.18378 0.47152,0.35664 0.68471,0.5116 0.2132,0.15496 0.4076,0.29205 0.57413,0.40463 0.16653,0.11257 0.30486,0.20073 0.40463,0.25734 0.0499,0.0283 0.0905,0.0487 0.11988,0.0605 0.0294,0.0118 0.0478,0.0147 0.0543,0.008 0.006,-0.006 0.003,-0.0249 -0.009,-0.0537 -0.0122,-0.0288 -0.0333,-0.068 -0.0625,-0.11679 -0.0584,-0.0975 -0.14881,-0.23231 -0.26458,-0.39481 -0.11576,-0.16249 -0.25683,-0.3528 -0.41599,-0.56069 -0.15916,-0.20788 -0.33645,-0.43345 -0.52504,-0.66714 -0.10859,-0.13457 -0.21856,-0.26586 -0.32969,-0.39326 -0.11114,-0.12739 -0.22326,-0.2507 -0.3359,-0.37 -0.11264,-0.1193 -0.22587,-0.23439 -0.339,-0.34468 -0.11312,-0.1103 -0.22642,-0.21589 -0.33899,-0.31626 -0.11258,-0.10037 -0.22438,-0.19572 -0.33538,-0.28525 -0.111,-0.0895 -0.2213,-0.17338 -0.3297,-0.25115 -0.10839,-0.0778 -0.21511,-0.14936 -0.31988,-0.21446 -0.10476,-0.0651 -0.20737,-0.12367 -0.30747,-0.17518 -0.14799,-0.0759 -0.28627,-0.14356 -0.41755,-0.20257 -0.13127,-0.059 -0.25576,-0.1092 -0.37568,-0.15038 -0.11993,-0.0412 -0.23538,-0.0732 -0.34934,-0.0956 -0.11395,-0.0224 -0.22617,-0.0351 -0.33951,-0.0377 z" /><path
         id="path1903"
         style="display:inline;opacity:1;fill:#ffffff;fill-opacity:1;fill-rule:evenodd;stroke:none;stroke-width:0.529167;stroke-linecap:round;stroke-miterlimit:6;stroke-dasharray:none;stroke-opacity:1;paint-order:markers stroke fill"
         d="m 141.19448,131.03955 c -0.0113,0 -0.0333,0.0433 -0.0651,0.12557 -0.0318,0.0823 -0.0736,0.20347 -0.12351,0.35967 -0.0998,0.31239 -0.23331,0.76439 -0.39119,1.32188 -0.15787,0.55749 -0.34003,1.22065 -0.53692,1.95595 -0.19688,0.7353 -0.40844,1.54267 -0.62528,2.38849 -0.38608,1.50568 -0.67757,2.6475 -0.8971,3.56361 -0.10977,0.45805 -0.20146,0.85954 -0.27802,1.22214 -0.0766,0.36261 -0.13809,0.68628 -0.18707,0.98806 -0.049,0.30178 -0.0856,0.58173 -0.11266,0.85731 -0.027,0.27558 -0.0446,0.54643 -0.0553,0.83044 -0.0107,0.28401 -0.0145,0.5814 -0.0145,0.90847 4e-5,0.32707 0.004,0.68407 0.009,1.08882 0.004,0.28456 0.0107,0.56158 0.0207,0.83148 0.01,0.2699 0.0232,0.53249 0.0393,0.78806 0.016,0.25557 0.0346,0.50413 0.0563,0.74569 0.0217,0.24157 0.0464,0.47647 0.0734,0.70435 0.027,0.22789 0.0565,0.449 0.0884,0.66353 0.0319,0.21453 0.0659,0.42223 0.10232,0.62373 0.0364,0.20151 0.0747,0.39669 0.11524,0.5855 0.0405,0.1888 0.0833,0.37134 0.12764,0.54777 0.0708,0.28194 0.13243,0.52849 0.18294,0.73949 0.0505,0.21099 0.0899,0.38623 0.11678,0.52658 0.0269,0.14035 0.0412,0.24572 0.0413,0.31574 5e-5,0.035 -0.004,0.0611 -0.0109,0.0786 -0.007,0.0175 -0.0181,0.0264 -0.0331,0.0264 -0.12097,-0.2121 -0.22413,-0.40528 -0.31316,-0.58343 -0.089,-0.17815 -0.16395,-0.34102 -0.22738,-0.49248 -0.0634,-0.15145 -0.11552,-0.29172 -0.15968,-0.42374 -0.0442,-0.13202 -0.0804,-0.25586 -0.11162,-0.37569 -0.0624,-0.23967 -0.10524,-0.46265 -0.15399,-0.69712 -0.0244,-0.11723 -0.0502,-0.23698 -0.0806,-0.3638 -0.0305,-0.12681 -0.0656,-0.26046 -0.10852,-0.40411 -0.052,0.29852 -0.0963,0.59609 -0.13487,0.89245 -0.0385,0.29637 -0.0712,0.5915 -0.0997,0.88574 -0.0572,0.58848 -0.098,1.17276 -0.13642,1.75286 -0.0489,0.74316 -0.0836,1.40659 -0.10801,2.00453 -0.0244,0.59794 -0.0384,1.1302 -0.046,1.61076 -0.008,0.48055 -0.009,0.90969 -0.007,1.30069 0.002,0.391 0.006,0.74404 0.009,1.07332 0.008,0.85614 0.0254,1.61457 0.0522,2.42518 0.0268,0.8106 0.0631,1.67338 0.10852,2.73885 0.0285,0.63664 0.0474,1.25851 0.0599,1.83399 0.0125,0.57549 0.0188,1.1044 0.0227,1.55495 0.004,0.45055 0.005,0.82286 0.008,1.08469 0.003,0.26182 0.007,0.41338 0.0155,0.42271 0.004,0.005 0.0138,-0.002 0.0269,-0.0181 0.0131,-0.0161 0.0297,-0.0416 0.0496,-0.0754 0.0399,-0.0677 0.0919,-0.16764 0.14831,-0.28835 0.0564,-0.12072 0.11739,-0.26209 0.1757,-0.41186 0.0583,-0.14977 0.11414,-0.30817 0.15968,-0.46302 0.0643,-0.21863 0.15511,-0.47915 0.2682,-0.77256 0.1131,-0.29342 0.24837,-0.61973 0.40153,-0.97049 0.15316,-0.35075 0.32453,-0.72606 0.50901,-1.11673 0.18448,-0.39066 0.38205,-0.79661 0.58911,-1.20974 0.20706,-0.41313 0.42351,-0.83293 0.64441,-1.25109 0.2209,-0.41815 0.44631,-0.83449 0.67231,-1.24023 0.226,-0.40574 0.45253,-0.8013 0.67489,-1.17719 0.22236,-0.37589 0.44063,-0.73232 0.65061,-1.06092 0.27584,-0.43165 0.53518,-0.8486 0.77773,-1.25367 0.24255,-0.40507 0.46847,-0.79836 0.67799,-1.18287 0.20953,-0.38451 0.40254,-0.76019 0.5793,-1.13017 0.0884,-0.18498 0.17246,-0.36838 0.2527,-0.55087 0.0802,-0.18248 0.15679,-0.36393 0.22892,-0.54467 0.0721,-0.18073 0.14007,-0.36079 0.20412,-0.54053 0.0641,-0.17974 0.12383,-0.35949 0.17984,-0.53899 0.056,-0.17949 0.10806,-0.35898 0.15606,-0.53898 0.048,-0.18001 0.0923,-0.3603 0.13229,-0.54157 0.04,-0.18127 0.0759,-0.36345 0.10801,-0.54674 0.0321,-0.18328 0.0601,-0.36791 0.0842,-0.55397 0.0242,-0.18606 0.0442,-0.37369 0.0605,-0.56327 0.0163,-0.18958 0.0288,-0.38079 0.0372,-0.57464 0.008,-0.19386 0.0128,-0.39023 0.0134,-0.58912 6.2e-4,-0.19888 -0.003,-0.40046 -0.01,-0.60513 -0.007,-0.20467 -0.0182,-0.41252 -0.0331,-0.62373 -0.0149,-0.21121 -0.0337,-0.42591 -0.0563,-0.64441 -0.0226,-0.21849 -0.0487,-0.4406 -0.0791,-0.66714 -0.0303,-0.22654 -0.0649,-0.45713 -0.10284,-0.69246 -0.0759,-0.47068 -0.16703,-0.95982 -0.27337,-1.4702 -0.10633,-0.51038 -0.22783,-1.04224 -0.36431,-1.59835 -0.13649,-0.55611 -0.28787,-1.13673 -0.45424,-1.7446 -0.16637,-0.60787 -0.34764,-1.24275 -0.54364,-1.90841 -0.19599,-0.66565 -0.40665,-1.36188 -0.632,-2.09134 -0.17982,-0.58207 -0.36095,-1.18045 -0.53433,-1.76372 -0.17339,-0.58327 -0.33886,-1.15124 -0.48783,-1.67276 -0.14897,-0.52153 -0.28151,-0.99637 -0.38809,-1.3932 -0.10658,-0.39683 -0.18736,-0.71582 -0.23358,-0.92501 -0.0462,-0.20917 -0.0951,-0.40881 -0.14366,-0.59066 -0.0486,-0.18185 -0.0967,-0.34582 -0.14211,-0.48369 -0.0454,-0.13788 -0.0882,-0.24985 -0.12505,-0.32711 -0.0184,-0.0386 -0.0354,-0.0685 -0.0506,-0.0889 -0.0152,-0.0204 -0.0285,-0.031 -0.0398,-0.031 z" /><path
         id="path1901"
         style="display:inline;opacity:1;fill:#ffffff;fill-opacity:1;fill-rule:evenodd;stroke:none;stroke-width:0.529167;stroke-linecap:round;stroke-miterlimit:6;stroke-dasharray:none;stroke-opacity:1;paint-order:markers stroke fill"
         d="m 69.16012,131.03955 c -0.01134,0 -0.02458,0.0106 -0.03979,0.031 -0.01521,0.0204 -0.03224,0.0503 -0.05064,0.0889 -0.0368,0.0773 -0.07963,0.18923 -0.125057,0.32711 -0.04543,0.13787 -0.09354,0.30184 -0.14211,0.48369 -0.04857,0.18185 -0.09744,0.38149 -0.143661,0.59066 -0.04622,0.20919 -0.126996,0.52818 -0.233577,0.92501 -0.106581,0.39683 -0.239121,0.87167 -0.38809,1.3932 -0.148969,0.52152 -0.314444,1.08949 -0.487826,1.67276 -0.173381,0.58327 -0.354516,1.18165 -0.534334,1.76372 -0.225354,0.72946 -0.436011,1.42569 -0.632003,2.09134 -0.195992,0.66566 -0.377267,1.30054 -0.543636,1.90841 -0.166369,0.60787 -0.317752,1.18849 -0.454236,1.7446 -0.136484,0.55611 -0.257981,1.08797 -0.364319,1.59835 -0.106337,0.51038 -0.197439,0.99952 -0.273368,1.4702 -0.03796,0.23533 -0.07252,0.46592 -0.102836,0.69246 -0.03031,0.22654 -0.05644,0.44865 -0.07906,0.66714 -0.02263,0.2185 -0.04141,0.4332 -0.05633,0.64441 -0.01491,0.21121 -0.02591,0.41906 -0.03307,0.62373 -0.0072,0.20467 -0.01044,0.40625 -0.0098,0.60513 6.19e-4,0.19889 0.005,0.39526 0.01344,0.58912 0.0084,0.19385 0.02093,0.38506 0.03721,0.57464 0.01628,0.18958 0.0363,0.37721 0.06046,0.56327 0.02416,0.18606 0.05216,0.37069 0.08423,0.55397 0.03207,0.18329 0.06798,0.36547 0.108004,0.54674 0.04002,0.18127 0.08429,0.36156 0.132292,0.54157 0.048,0.18 0.100053,0.35949 0.156062,0.53898 0.05601,0.1795 0.115782,0.35925 0.179834,0.53899 0.06405,0.17974 0.131993,0.3598 0.204122,0.54053 0.07213,0.18074 0.148688,0.36219 0.228927,0.54467 0.08024,0.18249 0.164317,0.36589 0.252698,0.55087 0.176761,0.36998 0.369767,0.74566 0.579292,1.13017 0.209526,0.38451 0.435444,0.7778 0.677995,1.18287 0.242551,0.40507 0.501892,0.82202 0.777731,1.25367 0.209983,0.3286 0.428244,0.68503 0.650606,1.06092 0.222361,0.37589 0.448894,0.77145 0.674894,1.17719 0.226,0.40574 0.451412,0.82208 0.67231,1.24023 0.220899,0.41816 0.437347,0.83796 0.644406,1.25109 0.207058,0.41313 0.404633,0.81908 0.589111,1.20974 0.184478,0.39067 0.355855,0.76598 0.509013,1.11673 0.153158,0.35076 0.288427,0.67707 0.401526,0.97049 0.113098,0.29341 0.203901,0.55393 0.2682,0.77256 0.04554,0.15485 0.101367,0.31325 0.15968,0.46302 0.05831,0.14977 0.119258,0.29114 0.1757,0.41186 0.05644,0.12071 0.108382,0.22067 0.148312,0.28835 0.01996,0.0339 0.03652,0.0594 0.04961,0.0754 0.01309,0.0161 0.02248,0.0228 0.02687,0.0181 0.0088,-0.009 0.01284,-0.16089 0.0155,-0.42271 0.0027,-0.26183 0.0038,-0.63414 0.0078,-1.08469 0.0039,-0.45055 0.0102,-0.97946 0.02274,-1.55495 0.01254,-0.57548 0.03143,-1.19735 0.05994,-1.83399 0.04542,-1.06547 0.08173,-1.92825 0.10852,-2.73885 0.0268,-0.81061 0.04408,-1.56904 0.05219,-2.42518 0.0031,-0.32928 0.0072,-0.68232 0.0088,-1.07332 0.0016,-0.391 3.83e-4,-0.82014 -0.0072,-1.30069 -0.0076,-0.48056 -0.02156,-1.01282 -0.04599,-1.61076 -0.02443,-0.59794 -0.05913,-1.26137 -0.108003,-2.00453 -0.03838,-0.5801 -0.07925,-1.16438 -0.136426,-1.75286 -0.02859,-0.29424 -0.0612,-0.58937 -0.09974,-0.88574 -0.03853,-0.29636 -0.08289,-0.59393 -0.134875,-0.89245 -0.04287,0.14365 -0.07807,0.2773 -0.108521,0.40411 -0.03045,0.12682 -0.05624,0.24657 -0.08062,0.3638 -0.04875,0.23447 -0.09154,0.45745 -0.153996,0.69712 -0.03123,0.11983 -0.06746,0.24367 -0.111621,0.37569 -0.04416,0.13202 -0.09625,0.27229 -0.15968,0.42374 -0.06342,0.15146 -0.138348,0.31433 -0.227376,0.49248 -0.08903,0.17815 -0.192191,0.37133 -0.313159,0.58343 -0.01499,0 -0.02581,-0.009 -0.03307,-0.0264 -0.0073,-0.0175 -0.0109,-0.0435 -0.01085,-0.0786 1.03e-4,-0.07 0.01441,-0.17539 0.04134,-0.31574 0.02693,-0.14035 0.06628,-0.31559 0.116789,-0.52658 0.0505,-0.211 0.112107,-0.45755 0.182934,-0.73949 0.04432,-0.17643 0.08709,-0.35897 0.127641,-0.54777 0.04055,-0.18881 0.07884,-0.38399 0.115238,-0.5855 0.03639,-0.2015 0.07045,-0.4092 0.10232,-0.62373 0.03187,-0.21453 0.0614,-0.43564 0.08837,-0.66353 0.02697,-0.22788 0.05169,-0.46278 0.07338,-0.70435 0.02169,-0.24156 0.04029,-0.49012 0.05633,-0.74569 0.01604,-0.25557 0.02926,-0.51816 0.03927,-0.78806 0.01001,-0.2699 0.01706,-0.54692 0.02067,-0.83148 0.0051,-0.40475 0.0093,-0.76175 0.0093,-1.08882 3.2e-5,-0.32707 -0.0038,-0.62446 -0.01447,-0.90847 -0.01069,-0.28401 -0.02826,-0.55486 -0.05529,-0.83044 -0.02703,-0.27558 -0.06367,-0.55553 -0.112655,-0.85731 -0.04899,-0.30178 -0.110502,-0.62545 -0.187069,-0.98806 -0.07657,-0.3626 -0.168258,-0.76409 -0.278019,-1.22214 -0.219522,-0.91611 -0.511094,-2.05793 -0.897103,-3.56361 -0.216838,-0.84582 -0.4284,-1.65319 -0.625285,-2.38849 -0.196884,-0.7353 -0.379045,-1.39846 -0.536918,-1.95595 -0.157873,-0.55749 -0.291387,-1.00949 -0.39119,-1.32188 -0.0499,-0.1562 -0.0917,-0.27737 -0.123507,-0.35967 -0.03181,-0.0823 -0.05378,-0.12557 -0.06511,-0.12557 z" /><path
         id="rect1695"
         style="display:inline;opacity:1;fill:#ffffff;fill-opacity:1;fill-rule:evenodd;stroke:none;stroke-width:0.529167;stroke-linecap:round;stroke-miterlimit:6;stroke-dasharray:none;stroke-opacity:1;paint-order:markers stroke fill"
         d="m 90.014661,177.37677 c -0.0197,-0.006 -0.03272,-0.006 -0.03772,5.2e-4 -0.02077,0.0269 -0.190578,0.42951 -0.447518,1.05678 -0.25694,0.62727 -0.601007,1.47917 -0.969967,2.40399 l -1.34152,3.3631 c 0.457669,0.26824 0.85077,0.51203 1.247986,0.73484 0.198608,0.1114 0.397926,0.21753 0.607198,0.31884 0.209272,0.10131 0.428472,0.19785 0.665592,0.28991 0.0653,-0.16145 0.127274,-0.33277 0.186552,-0.51005 0.05928,-0.17728 0.115979,-0.36067 0.170533,-0.54622 0.109107,-0.3711 0.210004,-0.75124 0.307991,-1.11001 0.04899,-0.17938 0.09705,-0.35336 0.145211,-0.51831 0.04816,-0.16496 0.09607,-0.32059 0.144694,-0.46354 0.04862,-0.14295 0.09793,-0.27316 0.148311,-0.38654 0.05038,-0.11339 0.102112,-0.21004 0.155546,-0.28629 0.41497,0.19633 0.865548,0.39909 1.340487,0.63097 0.237469,0.11594 0.480993,0.23926 0.729154,0.37259 0.248162,0.13333 0.501073,0.27666 0.75706,0.43305 -0.06695,0.37345 -0.135918,0.72513 -0.206189,1.06453 -0.07027,0.3394 -0.141664,0.66629 -0.214457,0.9896 -0.145586,0.64663 -0.295597,1.27929 -0.446484,1.96939 0.202352,0.0746 0.407692,0.1587 0.613399,0.24392 0.205707,0.0852 0.411513,0.17141 0.614949,0.25011 0.203437,0.0787 0.404424,0.15006 0.599964,0.20516 0.09777,0.0275 0.19413,0.0513 0.288871,0.0698 0.09474,0.0184 0.188044,0.0316 0.279053,0.0388 0.05654,-0.28404 0.105904,-0.58322 0.152962,-0.89556 0.04706,-0.31234 0.09155,-0.63785 0.137976,-0.97461 0.04642,-0.33677 0.09471,-0.68501 0.149345,-1.04232 0.05464,-0.3573 0.115887,-0.72365 0.187586,-1.09761 0.02277,-0.004 0.05262,-0.003 0.09147,0.001 0.03885,0.004 0.08644,0.0124 0.145211,0.0248 0.11754,0.0248 0.278843,0.066 0.499194,0.12403 0.440702,0.11608 1.118041,0.29969 2.154907,0.55552 0.01021,0.0385 0.01728,0.0834 0.0217,0.13384 0.0044,0.0504 0.0063,0.1061 0.0057,0.16743 -0.0013,0.12266 -0.01193,0.26616 -0.02894,0.42633 -0.03402,0.32034 -0.09354,0.70775 -0.155029,1.12913 -0.03075,0.21069 -0.06223,0.43 -0.09095,0.65371 -0.02872,0.22371 -0.05467,0.45202 -0.07545,0.68058 -0.02078,0.22856 -0.03651,0.4574 -0.04341,0.68264 -0.0069,0.22525 -0.0051,0.44666 0.0078,0.66043 0.211043,0.0152 0.413541,0.0429 0.610815,0.076 0.197274,0.0331 0.389206,0.0716 0.57981,0.10904 0.190603,0.0375 0.379476,0.074 0.570506,0.10232 0.0955,0.0142 0.19192,0.0263 0.28887,0.0357 0.097,0.009 0.19476,0.0158 0.29404,0.0186 0.037,-0.17979 0.0689,-0.38313 0.0971,-0.60151 0.0282,-0.21839 0.0527,-0.45177 0.0739,-0.69092 0.0424,-0.47829 0.0725,-0.98014 0.0971,-1.43454 0.0247,-0.45439 0.0438,-0.86139 0.0646,-1.14928 0.0104,-0.14394 0.0211,-0.25825 0.0331,-0.33383 0.006,-0.0378 0.0124,-0.0658 0.0191,-0.0832 0.007,-0.0173 0.014,-0.0239 0.0217,-0.0186 0.15681,0.005 0.36737,0.023 0.60255,0.0475 0.23518,0.0246 0.49475,0.0562 0.74879,0.0884 0.50808,0.0644 0.9946,0.13248 1.22112,0.15813 v 4.35735 h 2.68149 v -4.35735 c 0.22651,-0.0256 0.71265,-0.0937 1.22059,-0.15813 0.25398,-0.0322 0.51315,-0.0633 0.74828,-0.0879 0.23513,-0.0246 0.44625,-0.0427 0.60306,-0.0481 0.008,-0.005 0.015,0.001 0.0217,0.0186 0.007,0.0174 0.0126,0.0454 0.0186,0.0832 0.012,0.0756 0.0232,0.18989 0.0336,0.33383 0.0208,0.28789 0.0399,0.69489 0.0646,1.14928 0.0247,0.4544 0.0552,0.95625 0.0977,1.43454 0.0212,0.23915 0.0451,0.47253 0.0734,0.69092 0.0282,0.21838 0.0607,0.42172 0.0977,0.60151 0.0993,-0.003 0.1971,-0.009 0.29404,-0.0186 0.0969,-0.009 0.19286,-0.0215 0.28836,-0.0357 0.19098,-0.0283 0.37996,-0.0648 0.5705,-0.10232 0.19054,-0.0375 0.38259,-0.0759 0.57981,-0.10904 0.19723,-0.0331 0.39977,-0.0608 0.61082,-0.076 0.0129,-0.21377 0.0141,-0.43518 0.007,-0.66043 -0.007,-0.22524 -0.0221,-0.45408 -0.0429,-0.68264 -0.0207,-0.22856 -0.0468,-0.45687 -0.0755,-0.68058 -0.0287,-0.22371 -0.0597,-0.44302 -0.0904,-0.65371 -0.0614,-0.42138 -0.12105,-0.80879 -0.15503,-1.12913 -0.017,-0.16017 -0.0277,-0.30367 -0.0289,-0.42633 -6.2e-4,-0.0613 0.001,-0.11701 0.006,-0.16743 0.004,-0.0504 0.0115,-0.0953 0.0217,-0.13384 1.03686,-0.25583 1.7142,-0.43943 2.15491,-0.55552 0.22035,-0.0581 0.38113,-0.0993 0.49868,-0.12403 0.0588,-0.0124 0.10688,-0.0205 0.14572,-0.0248 0.0389,-0.004 0.0687,-0.005 0.0915,-0.001 0.0717,0.37396 0.13243,0.74031 0.18707,1.09761 0.0546,0.35731 0.10292,0.70555 0.14934,1.04232 0.0464,0.33676 0.0909,0.66227 0.13798,0.97461 0.0471,0.31234 0.0969,0.61152 0.15348,0.89556 0.091,-0.007 0.18379,-0.0203 0.27854,-0.0388 0.0947,-0.0184 0.19161,-0.0422 0.28938,-0.0698 0.19554,-0.0551 0.39601,-0.12646 0.59945,-0.20516 0.20344,-0.0787 0.40976,-0.1649 0.61547,-0.25011 0.2057,-0.0852 0.41104,-0.16928 0.6134,-0.24392 -0.15089,-0.6901 -0.30077,-1.32276 -0.44649,-1.96939 -0.0729,-0.32331 -0.14465,-0.6502 -0.21497,-0.9896 -0.0703,-0.3394 -0.13924,-0.69108 -0.20619,-1.06453 0.25599,-0.15639 0.5089,-0.29972 0.75706,-0.43305 0.24816,-0.13333 0.49168,-0.25665 0.72915,-0.37259 0.47494,-0.23188 0.92552,-0.43464 1.34049,-0.63097 0.0534,0.0762 0.10515,0.1729 0.15554,0.28629 0.0504,0.11338 0.0997,0.24359 0.14832,0.38654 0.0486,0.14295 0.0965,0.29858 0.14469,0.46354 0.0482,0.16495 0.0967,0.33893 0.14573,0.51831 0.0981,0.35877 0.19883,0.73891 0.30799,1.11001 0.0546,0.18555 0.11124,0.36894 0.17053,0.54622 0.0593,0.17728 0.12125,0.3486 0.18655,0.51005 0.23712,-0.0921 0.45581,-0.1886 0.66508,-0.28991 0.20927,-0.10131 0.40911,-0.20744 0.60771,-0.31884 0.39722,-0.22281 0.79032,-0.4666 1.24799,-0.73484 l -1.34152,-3.3631 c -0.36896,-0.92482 -0.71302,-1.77672 -0.96997,-2.40399 -0.25694,-0.62727 -0.42676,-1.02993 -0.44751,-1.05678 -0.005,-0.007 -0.018,-0.007 -0.0377,-5.2e-4 -0.0344,0.0111 -0.0897,0.0413 -0.16175,0.0873 -0.072,0.0461 -0.16101,0.10807 -0.262,0.18294 -0.20197,0.14973 -0.45303,0.35075 -0.71881,0.57826 -0.15707,0.13445 -0.34694,0.28025 -0.56224,0.43356 -0.21531,0.15332 -0.45585,0.31401 -0.71417,0.47801 -0.25833,0.16399 -0.53448,0.33167 -0.82062,0.49816 -0.28615,0.16649 -0.58234,0.33168 -0.88109,0.49248 -0.29874,0.16079 -0.59992,0.31713 -0.89607,0.46405 -0.29614,0.14692 -0.58725,0.28443 -0.86558,0.40928 -0.27833,0.12485 -0.54431,0.23664 -0.78961,0.33124 -0.24531,0.0946 -0.47007,0.17225 -0.66715,0.22841 -0.32139,0.0895 -0.64371,0.17316 -0.96634,0.25063 -0.32264,0.0775 -0.64572,0.14883 -0.96945,0.21446 -0.32374,0.0656 -0.64786,0.12535 -0.97256,0.17932 -0.32469,0.054 -0.64961,0.10222 -0.97513,0.14469 -0.32552,0.0425 -0.65151,0.0789 -0.97772,0.11007 -0.32621,0.0311 -0.65302,0.057 -0.97978,0.077 -0.32677,0.02 -0.65365,0.0344 -0.98082,0.0434 -0.32718,0.009 -0.6544,0.0127 -0.98185,0.0109 -0.32745,-0.002 -0.6553,-0.009 -0.98289,-0.0217 -0.32759,-0.0125 -0.6553,-0.0303 -0.98289,-0.0532 -0.32758,-0.0229 -0.65492,-0.051 -0.98236,-0.0842 -0.32745,-0.0332 -0.65468,-0.0713 -0.98186,-0.11472 -0.32717,-0.0434 -0.65406,-0.0919 -0.98081,-0.14521 -0.326762,-0.0533 -0.65358,-0.11153 -0.979788,-0.17467 -0.326208,-0.0631 -0.6522,-0.13135 -0.977718,-0.20412 -0.325519,-0.0728 -0.650443,-0.15032 -0.975134,-0.23255 -0.197073,-0.0562 -0.421838,-0.13381 -0.667143,-0.22841 -0.245306,-0.0946 -0.511288,-0.20639 -0.789616,-0.33124 -0.278329,-0.12485 -0.569438,-0.26236 -0.86558,-0.40928 -0.296142,-0.14692 -0.597323,-0.30326 -0.89607,-0.46405 -0.298746,-0.1608 -0.594941,-0.32599 -0.881083,-0.49248 -0.286141,-0.16649 -0.562295,-0.33417 -0.820622,-0.49816 -0.258326,-0.164 -0.498865,-0.32469 -0.714168,-0.47801 -0.215303,-0.15331 -0.40517,-0.29911 -0.562239,-0.43356 -0.26579,-0.22751 -0.516848,-0.42853 -0.71882,-0.57826 -0.100985,-0.0749 -0.189955,-0.13686 -0.261999,-0.18294 -0.07204,-0.0461 -0.127302,-0.0763 -0.161747,-0.0873 z"
         inkscape:label="rect1695" /></g><g
       id="g1285"
       inkscape:label="Texte"><g
         aria-label="SIGILLUM UNIVERSITATIS DAKARENSIS"
         transform="matrix(1.1338243,-0.05626645,0.05626645,1.1338243,-22.793304,-14.127075)"
         id="text1277"
         style="font-size:8.85453px;line-height:1.25;font-family:'Bodoni 72';-inkscape-font-specification:'Bodoni 72, ';text-align:center;letter-spacing:1.52193px;word-spacing:3.89457px;text-anchor:middle;display:inline;opacity:1;fill:#000000;fill-opacity:1;stroke-width:0.201483"><path
           d="m 64.224767,120.88177 1.663219,0.37918 -0.03483,0.31487 q -0.734211,0.0104 -1.361594,0.27967 -0.619946,0.27406 -0.903531,0.71281 -0.254745,0.39413 -0.162699,0.82263 0.09948,0.43331 0.493611,0.68805 0.416439,0.26917 0.827438,0.15527 0.406193,-0.10647 1.034303,-0.67046 0.703291,-0.63136 1.138776,-0.75052 0.665471,-0.18138 1.26782,0.20795 0.565167,0.3653 0.72423,1.01635 0.159063,0.65105 -0.191813,1.19391 -0.134583,0.20822 -0.569072,0.57051 -0.114087,0.0949 -0.162152,0.16932 -0.05768,0.0892 -0.07292,0.22699 l -0.037,0.33455 -1.584501,-0.37047 -0.0024,-0.3389 q 1.56029,0.0491 2.108233,-0.79868 0.2211,-0.34208 0.136944,-0.73385 -0.08896,-0.38434 -0.438474,-0.61024 -0.691585,-0.44701 -1.578883,0.37117 -0.572155,0.52635 -0.759246,0.66901 -0.187091,0.14265 -0.455982,0.23243 -0.767314,0.27369 -1.481209,-0.18774 -0.624657,-0.40375 -0.77719,-1.11383 -0.15734,-0.70266 0.241601,-1.31988 0.187454,-0.29002 0.613237,-0.5736 0.201964,-0.13304 0.264448,-0.22971 0.05287,-0.0818 0.05541,-0.24885 z"
           style="font-family:Century-Old-Style-Caps;-inkscape-font-specification:Century-Old-Style-Caps;display:inline;opacity:1;fill:#000000;fill-opacity:1"
           id="path1287" /><path
           d="m 62.054623,126.77537 3.416685,1.73952 q 0.370864,0.18881 0.541451,0.14649 0.17446,-0.0304 0.331136,-0.33815 l 0.0924,-0.18148 0.307738,0.15667 -1.072634,2.10683 -0.307738,-0.15668 0.0924,-0.18149 q 0.156677,-0.30773 0.08265,-0.47459 -0.07015,-0.15495 -0.441017,-0.34377 l -3.416685,-1.73951 q -0.370864,-0.18882 -0.545324,-0.15841 -0.170586,0.0423 -0.327263,0.35006 l -0.0924,0.18149 -0.307739,-0.15668 1.072634,-2.10682 0.307738,0.15667 -0.0924,0.18149 q -0.156677,0.30774 -0.08652,0.46269 0.07403,0.16686 0.44489,0.35567 z"
           style="font-family:Century-Old-Style-Caps;-inkscape-font-specification:Century-Old-Style-Caps;display:inline;opacity:1;fill:#000000;fill-opacity:1"
           id="path1289" /><path
           d="m 63.717311,135.54885 -1.585627,-0.003 -0.03642,-0.33462 q 1.532605,-0.33808 1.889854,-1.30107 0.258698,-0.69734 -0.311704,-1.40005 -0.56518,-0.69132 -1.752321,-1.13172 -1.178839,-0.43732 -2.039407,-0.25603 -0.767373,0.1592 -1.053788,0.93125 -0.181705,0.4898 -0.03,0.89552 0.156926,0.41709 0.588613,0.57724 l 0.315464,0.11703 q 0.398481,0.14782 0.563043,0.0861 0.169784,-0.0503 0.289893,-0.37411 l 0.08931,-0.24075 0.323766,0.12011 -0.80689,2.17504 -0.323766,-0.12011 0.04928,-0.13283 q 0.12011,-0.32376 0.02732,-0.48096 -0.08757,-0.14582 -0.486049,-0.29364 L 58.14112,133.9052 q 0.0391,-0.0799 0.08221,-0.19616 0.11395,-0.30716 0.132968,-0.79121 0.02277,-0.59598 0.176754,-1.01106 0.391126,-1.05432 1.418801,-1.45694 1.024594,-0.39433 2.220037,0.0492 1.245252,0.46196 1.860374,1.50235 0.623423,1.04348 0.250775,2.04798 -0.11087,0.29886 -0.380143,0.64285 -0.09078,0.11742 -0.1339,0.23365 -0.05236,0.14113 -0.05169,0.62303 z"
           style="font-family:Century-Old-Style-Caps;-inkscape-font-specification:Century-Old-Style-Caps;display:inline;opacity:1;fill:#000000;fill-opacity:1"
           id="path1291" /><path
           d="m 58.062834,137.31193 3.727502,0.89743 q 0.404602,0.0974 0.560674,0.0166 0.162607,-0.0702 0.243438,-0.40588 l 0.04767,-0.198 0.335733,0.0808 -0.553377,2.29849 -0.335733,-0.0808 0.04767,-0.198 q 0.08083,-0.33573 -0.02996,-0.48081 -0.104258,-0.13439 -0.508859,-0.2318 l -3.727503,-0.89742 q -0.404602,-0.0974 -0.567209,-0.0273 -0.156072,0.0808 -0.236902,0.41655 l -0.04767,0.198 -0.335733,-0.0808 0.553377,-2.29848 0.335734,0.0808 -0.04767,0.19799 q -0.08083,0.33574 0.02343,0.47013 0.110793,0.14507 0.515395,0.24248 z"
           style="font-family:Century-Old-Style-Caps;-inkscape-font-specification:Century-Old-Style-Caps;display:inline;opacity:1;fill:#000000;fill-opacity:1"
           id="path1293" /><path
           d="m 57.335931,145.28121 -0.159354,0.27451 -1.451633,-0.73529 0.515551,-4.11173 0.342643,0.043 -0.02534,0.20208 q -0.04296,0.34264 0.07561,0.46459 0.126251,0.13184 0.53918,0.18362 l 3.804225,0.47699 q 0.412929,0.0518 0.559036,-0.0459 0.153791,-0.0878 0.196754,-0.43045 l 0.02534,-0.20207 0.342643,0.043 -0.294128,2.34579 -0.342644,-0.043 0.02534,-0.20207 q 0.04296,-0.34265 -0.08329,-0.47449 -0.118567,-0.12195 -0.531497,-0.17372 l -3.725152,-0.46708 q -0.369001,-0.0463 -0.478836,-0.0243 -0.237242,0.0416 -0.307637,0.31838 -0.0209,0.0956 -0.04073,0.25369 -0.06499,0.51836 0.0041,0.82151 0.06797,0.31193 0.330309,0.7107 0.300756,0.44821 0.679536,0.77234 z"
           style="font-family:Century-Old-Style-Caps;-inkscape-font-specification:Century-Old-Style-Caps;display:inline;opacity:1;fill:#000000;fill-opacity:1"
           id="path1295" /><path
           d="m 57.246265,151.55054 -0.122831,0.29268 -1.533949,-0.54304 -0.01606,-4.14389 0.345325,-0.001 7.89e-4,0.20365 q 0.0013,0.34533 0.134566,0.45107 0.142117,0.11456 0.558277,0.11294 l 3.833983,-0.0148 q 0.41616,-0.002 0.548531,-0.11723 0.14126,-0.10681 0.139922,-0.45213 l -7.89e-4,-0.20365 0.345324,-0.001 0.0092,2.36414 -0.345324,0.001 -7.89e-4,-0.20365 q -0.0013,-0.34533 -0.143455,-0.45989 -0.133229,-0.10574 -0.549389,-0.10412 l -3.754292,0.0145 q -0.371888,0.001 -0.478004,0.0373 -0.229942,0.0717 -0.264262,0.35521 -0.0085,0.0974 -0.0079,0.25681 0.002,0.52242 0.109409,0.8142 0.10742,0.30064 0.418733,0.66247 0.355756,0.40594 0.77298,0.67881 z"
           style="font-family:Century-Old-Style-Caps;-inkscape-font-specification:Century-Old-Style-Caps;display:inline;opacity:1;fill:#000000;fill-opacity:1"
           id="path1297" /><path
           d="m 60.739483,154.33151 -2.672493,0.38883 q -0.569547,0.0829 -0.792267,0.15107 -0.213957,0.0669 -0.407678,0.21142 -0.618601,0.48371 -0.500038,1.2986 0.142786,0.98138 0.989873,1.20709 0.372164,0.098 1.265916,-0.0321 l 2.181805,-0.31745 q 0.481925,-0.0701 0.661946,-0.18578 0.270032,-0.17351 0.264124,-0.52161 l -0.003,-0.20536 0.341729,-0.0497 0.281747,1.93646 -0.341728,0.0497 -0.05434,-0.18894 q -0.09481,-0.34412 -0.401809,-0.42472 -0.241843,-0.0632 -0.662432,-0.002 l -2.208092,0.32126 q -1.060235,0.15426 -1.560332,-0.0235 -0.962595,-0.34313 -1.153826,-1.65747 -0.187407,-1.28805 0.563579,-1.90734 0.343631,-0.28264 0.891829,-0.38924 0.0513,-0.0164 0.541986,-0.0878 l 2.654969,-0.38628 q 0.420589,-0.0612 0.535449,-0.19423 0.116136,-0.12427 0.06769,-0.45724 l -0.0306,-0.21029 0.341728,-0.0497 0.340392,2.33952 -0.341729,0.0497 -0.02932,-0.20154 q -0.04845,-0.33296 -0.205215,-0.42648 -0.148007,-0.0948 -0.559834,-0.0349 z"
           style="font-family:Century-Old-Style-Caps;-inkscape-font-specification:Century-Old-Style-Caps;display:inline;opacity:1;fill:#000000;fill-opacity:1"
           id="path1299" /><path
           d="m 63.650226,164.49125 -5.68276,-0.18657 -0.0792,-0.24426 4.421871,-3.47235 -3.69761,1.19897 q -0.522214,0.16933 -0.702971,0.35826 -0.172334,0.1862 -0.09928,0.49761 l 0.04597,0.19919 -0.328489,0.10651 -0.603581,-1.86144 0.328489,-0.10651 0.07966,0.18826 q 0.225329,0.52267 1.151838,0.22225 l 3.310161,-1.07334 q 0.395872,-0.12836 0.486709,-0.27883 0.101991,-0.14477 -0.0045,-0.47326 l -0.06282,-0.19372 0.328489,-0.10652 0.559883,1.72668 -3.773753,2.97363 4.795198,0.1765 0.548958,1.69298 -0.328489,0.10651 -0.06282,-0.19372 q -0.106515,-0.32849 -0.276784,-0.39429 -0.159116,-0.0601 -0.554988,0.0683 l -3.647073,1.18258 q -0.404295,0.1311 -0.497863,0.27314 -0.09357,0.14204 0.01568,0.47895 l 0.06282,0.19372 -0.328489,0.10652 -0.729213,-2.24889 0.328489,-0.10651 0.06282,0.19372 q 0.106514,0.32849 0.26563,0.3886 0.17027,0.0658 0.566141,-0.0626 z"
           style="font-family:Century-Old-Style-Caps;-inkscape-font-specification:Century-Old-Style-Caps;display:inline;opacity:1;fill:#000000;fill-opacity:1"
           id="path1301" /><path
           d="m 68.444195,174.62364 -2.173047,1.60353 q -0.463108,0.34173 -0.627322,0.50692 -0.157089,0.15994 -0.259736,0.37874 -0.317277,0.71831 0.171665,1.38091 0.588834,0.79797 1.442226,0.59741 0.374366,-0.0892 1.10109,-0.62544 l 1.774061,-1.3091 q 0.391861,-0.28916 0.496031,-0.47607 0.156255,-0.28037 -0.01316,-0.58452 l -0.09955,-0.17964 0.277865,-0.20504 1.161895,1.57457 -0.277865,0.20504 -0.137038,-0.14098 q -0.245922,-0.2587 -0.554642,-0.18495 -0.243076,0.0583 -0.585063,0.31068 l -1.795436,1.32488 q -0.862094,0.63615 -1.386914,0.7153 -1.010626,0.15152 -1.799243,-0.91719 -0.772844,-1.04734 -0.402792,-1.94765 0.16967,-0.41131 0.602757,-0.7639 0.03749,-0.0387 0.436476,-0.33309 l 2.158798,-1.59301 q 0.341988,-0.25235 0.380512,-0.42384 0.04378,-0.16436 -0.156001,-0.4351 l -0.126179,-0.17099 0.277865,-0.20504 1.403738,1.90231 -0.277865,0.20504 -0.120921,-0.16387 q -0.199783,-0.27074 -0.382126,-0.27925 -0.175218,-0.0138 -0.510081,0.23334 z"
           style="font-family:Century-Old-Style-Caps;-inkscape-font-specification:Century-Old-Style-Caps;display:inline;opacity:1;fill:#000000;fill-opacity:1"
           id="path1303" /><path
           d="m 71.433219,185.62459 1.112697,-5.87805 -2.430656,2.45295 q -0.685569,0.69186 -0.320428,1.12848 l 0.132196,0.15592 -0.243066,0.2453 -1.390005,-1.37738 0.243066,-0.24529 0.157126,0.13077 q 0.43993,0.36114 1.1255,-0.33072 l 2.692418,-2.71712 q 0.03574,-0.40087 -0.316596,-0.77494 l 0.25553,-0.25787 0.98747,0.97849 -0.909255,5.18214 2.06294,-2.08186 q 0.367715,-0.37109 0.429182,-0.62182 0.07399,-0.25078 -0.114985,-0.50037 l -0.125964,-0.16221 0.243065,-0.2453 1.390006,1.37737 -0.243066,0.2453 -0.163358,-0.12448 q -0.251299,-0.18669 -0.507687,-0.11664 -0.243866,0.07 -0.611581,0.44107 l -3.259571,3.28947 z"
           style="font-family:Century-Old-Style-Caps;-inkscape-font-specification:Century-Old-Style-Caps;display:inline;opacity:1;fill:#000000;fill-opacity:1"
           id="path1305" /><path
           d="m 75.146196,187.25066 2.341837,-3.0357 q 0.254195,-0.32951 0.24418,-0.50498 0.0024,-0.17707 -0.271018,-0.388 l -0.16125,-0.1244 0.210928,-0.27342 1.871895,1.44404 -0.210928,0.27343 -0.161249,-0.1244 q -0.273423,-0.21092 -0.451098,-0.16906 -0.165256,0.0403 -0.419451,0.36977 l -2.341838,3.0357 q -0.254195,0.32951 -0.256599,0.50658 0.01001,0.17547 0.283437,0.3864 l 0.16125,0.12439 -0.210928,0.27343 -1.871895,-1.44405 0.210928,-0.27342 0.161249,0.12439 q 0.273423,0.21093 0.438679,0.17067 0.177676,-0.0419 0.431871,-0.37137 z"
           style="font-family:Century-Old-Style-Caps;-inkscape-font-specification:Century-Old-Style-Caps;display:inline;opacity:1;fill:#000000;fill-opacity:1"
           id="path1307" /><path
           d="m 79.644551,191.82329 -0.235053,-0.14176 1.153727,-5.18776 q 0.102752,-0.4447 0.04245,-0.63617 -0.06031,-0.19148 -0.340854,-0.36067 l -0.03791,-0.0229 0.178341,-0.29571 1.903165,1.14779 -0.178341,0.29571 -0.174394,-0.10518 q -0.379116,-0.22864 -0.520875,0.006 -0.06402,0.10615 -0.136091,0.41426 l -0.864972,3.74883 2.927366,-2.50502 q 0.106505,-0.0909 0.170525,-0.19702 0.228642,-0.37912 -0.279374,-0.6855 l -0.04549,-0.0274 0.178341,-0.29571 1.56196,0.94201 -0.178341,0.29571 q -0.312439,-0.16775 -0.519077,-0.11659 -0.194483,0.0481 -0.509423,0.31318 z"
           style="font-family:Century-Old-Style-Caps;-inkscape-font-specification:Century-Old-Style-Caps;display:inline;opacity:1;fill:#000000;fill-opacity:1"
           id="path1309" /><path
           d="m 88.32404,194.03013 0.20367,0.22187 -1.134815,1.19045 -3.948782,-1.68801 0.135737,-0.31753 0.187262,0.08 q 0.317531,0.13573 0.467439,0.0554 0.161531,-0.085 0.325112,-0.46769 l 1.507032,-3.5254 q 0.163581,-0.38267 0.109944,-0.55004 -0.04201,-0.17204 -0.359546,-0.30777 l -0.187262,-0.08 0.135737,-0.31754 3.834797,1.63929 -0.08346,1.52432 -0.326729,-0.0241 q -0.163523,-0.81138 -0.469681,-1.22152 -0.298016,-0.40665 -0.94122,-0.68161 -0.415233,-0.1775 -0.595409,-0.13897 -0.172034,0.042 -0.300811,0.34327 l -0.71349,1.66907 0.252396,0.10789 q 0.594353,0.25408 0.898893,0.17241 0.308022,-0.0898 0.627291,-0.58889 l 0.309389,0.13226 -0.922318,2.15758 -0.301247,-0.12877 q 0.158733,-0.59659 0.0027,-0.88479 -0.147921,-0.28471 -0.774841,-0.55271 l -0.227971,-0.0974 -0.765697,1.7912 q -0.139218,0.32567 -0.07048,0.48024 0.07222,0.14643 0.446744,0.30653 0.692054,0.29584 1.287276,0.2325 0.598703,-0.0715 1.392372,-0.53145 z"
           style="font-family:Century-Old-Style-Caps;-inkscape-font-specification:Century-Old-Style-Caps;display:inline;opacity:1;fill:#000000;fill-opacity:1"
           id="path1311" /><path
           d="m 92.783226,194.2015 -0.555718,-0.14976 -0.467717,1.73555 q -0.108289,0.40183 -0.04256,0.56627 0.07658,0.1582 0.410014,0.24805 l 0.136792,0.0369 -0.08986,0.33343 -2.222874,-0.59905 0.08986,-0.33343 0.196639,0.053 q 0.333431,0.0899 0.470585,-0.0107 0.148008,-0.10684 0.256297,-0.50867 l 0.997643,-3.70194 q 0.108289,-0.40183 0.03171,-0.56002 -0.06573,-0.16444 -0.39916,-0.2543 l -0.196639,-0.053 0.08986,-0.33343 2.28272,0.61517 q 0.726708,0.19584 1.186687,0.53072 0.360354,0.26218 0.516129,0.67098 0.155775,0.4088 0.04518,0.81917 -0.105985,0.39328 -0.428983,0.67305 -0.314448,0.28208 -0.739011,0.36024 -0.318998,0.0608 -0.721492,-0.011 l 0.509536,2.09061 q 0.11794,0.48114 0.25437,0.65546 0.13643,0.17432 0.47841,0.26648 l 0.119693,0.0323 -0.08986,0.33343 -1.359372,-0.36634 z m -0.465861,-0.48319 0.760907,0.20506 q 0.581367,0.15667 0.991497,-0.0721 0.420984,-0.23502 0.575353,-0.80784 0.297219,-1.10289 -1.036505,-1.46231 -0.401827,-0.10829 -0.573179,-0.0169 -0.160499,0.0851 -0.261876,0.46131 z"
           style="font-family:Century-Old-Style-Caps;-inkscape-font-specification:Century-Old-Style-Caps;display:inline;opacity:1;fill:#000000;fill-opacity:1"
           id="path1313" /><path
           d="m 97.207086,198.19765 -0.367338,-1.66587 0.299591,-0.10296 q 0.322941,0.65945 0.834307,1.11179 0.512536,0.44356 1.030366,0.51264 0.465169,0.0621 0.813337,-0.20415 0.349341,-0.27498 0.411391,-0.74015 0.0656,-0.4915 -0.21292,-0.81451 -0.269722,-0.32183 -1.047913,-0.64897 -0.871223,-0.36635 -1.164931,-0.70926 -0.448167,-0.5243 -0.353327,-1.23522 0.08899,-0.66703 0.609777,-1.08887 0.520791,-0.42184 1.161495,-0.33636 0.24575,0.0328 0.758887,0.27096 0.134572,0.0626 0.222342,0.0743 0.10532,0.014 0.23639,-0.031 l 0.31832,-0.1094 0.3416,1.59098 -0.30545,0.14684 q -0.62188,-1.43184 -1.622436,-1.56532 -0.403732,-0.0539 -0.722057,0.18953 -0.309548,0.24456 -0.364579,0.65706 -0.108891,0.81624 1.009833,1.26921 0.720267,0.29261 0.929149,0.40088 0.20888,0.10826 0.40488,0.31307 0.57514,0.57697 0.46273,1.41954 -0.0983,0.73725 -0.67531,1.17839 -0.568191,0.44231 -1.296663,0.34513 -0.342294,-0.0457 -0.780533,-0.30958 -0.206539,-0.12582 -0.320638,-0.14104 -0.09654,-0.0129 -0.248681,0.0562 z"
           style="font-family:Century-Old-Style-Caps;-inkscape-font-specification:Century-Old-Style-Caps;display:inline;opacity:1;fill:#000000;fill-opacity:1"
           id="path1315" /><path
           d="m 103.461,197.64276 0.1049,-3.83257 q 0.0114,-0.41601 -0.10004,-0.55193 -0.10234,-0.14453 -0.44754,-0.15397 l -0.20357,-0.006 0.009,-0.34519 2.36328,0.0647 -0.009,0.3452 -0.20358,-0.006 q -0.3452,-0.009 -0.46414,0.12902 -0.10985,0.12986 -0.12123,0.54587 l -0.10491,3.83257 q -0.0114,0.41601 0.091,0.56054 0.11143,0.13592 0.45662,0.14536 l 0.20358,0.006 -0.009,0.34519 -2.36327,-0.0647 0.009,-0.3452 0.20358,0.006 q 0.34519,0.009 0.45504,-0.12041 0.11894,-0.13847 0.13033,-0.55448 z"
           style="font-family:Century-Old-Style-Caps;-inkscape-font-specification:Century-Old-Style-Caps;display:inline;opacity:1;fill:#000000;fill-opacity:1"
           id="path1317" /><path
           d="m 111.82892,193.88861 -0.29873,0.1489 q -0.89639,-1.17909 -1.69945,-1.11316 -0.26474,0.0217 -0.30972,0.12315 -0.0369,0.0919 -0.0217,0.27719 l 0.33979,4.13885 q 0.034,0.41477 0.15154,0.54727 0.12559,0.12296 0.46976,0.0947 l 0.25592,-0.021 0.0283,0.34417 -2.46213,0.20214 -0.0283,-0.34417 0.25592,-0.021 q 0.34417,-0.0283 0.4392,-0.16932 0.10313,-0.15062 0.0691,-0.56539 l -0.33979,-4.13885 q -0.0181,-0.22062 -0.0945,-0.28542 -0.0683,-0.0744 -0.27126,-0.0577 -0.82954,0.0681 -1.52162,1.37761 l -0.31901,-0.0982 0.32098,-1.50115 4.47419,-0.36732 z"
           style="font-family:Century-Old-Style-Caps;-inkscape-font-specification:Century-Old-Style-Caps;display:inline;opacity:1;fill:#000000;fill-opacity:1"
           id="path1319" /><path
           d="m 114.28575,191.91479 0.65436,-0.36771 2.62966,4.58664 q 0.24802,0.43561 0.37244,0.5084 0.13306,0.0709 0.5195,0.0147 l 0.0729,0.33755 -2.16379,0.46708 -0.0729,-0.33755 0.22504,-0.0486 q 0.44141,-0.0953 0.38349,-0.36359 -0.0206,-0.0952 -0.18488,-0.3949 l -0.49487,-0.90773 -1.94742,0.42037 -0.085,1.0329 q -0.0134,0.14783 0.009,0.25169 0.0617,0.28562 0.32642,0.33717 0.13238,0.0258 0.43531,-0.0396 l 0.0729,0.33755 -1.76566,0.38113 -0.0729,-0.33755 q 0.32516,-0.0883 0.4368,-0.28452 0.0864,-0.14546 0.12533,-0.55244 z m 0.0393,3.49715 1.6791,-0.36245 -1.38666,-2.56315 z"
           style="font-family:Century-Old-Style-Caps;-inkscape-font-specification:Century-Old-Style-Caps;display:inline;opacity:1;fill:#000000;fill-opacity:1"
           id="path1321" /><path
           d="m 123.12598,190.68123 -0.24909,0.22218 q -1.17477,-0.90206 -1.93227,-0.62739 -0.24973,0.0906 -0.26647,0.20022 -0.0114,0.0983 0.0519,0.27315 l 1.4156,3.90405 q 0.14186,0.39123 0.29005,0.4882 0.15349,0.0856 0.47813,-0.0321 l 0.2414,-0.0875 0.11772,0.32464 -2.32246,0.84212 -0.11771,-0.32464 0.2414,-0.0875 q 0.32464,-0.11771 0.37926,-0.27879 0.0599,-0.17243 -0.0819,-0.56367 l -1.4156,-3.90405 q -0.0755,-0.2081 -0.1662,-0.25055 -0.0854,-0.0538 -0.27689,0.0156 -0.78248,0.28373 -1.10607,1.72909 l -0.3336,-0.0109 -0.0848,-1.53273 4.22037,-1.5303 z"
           style="font-family:Century-Old-Style-Caps;-inkscape-font-specification:Century-Old-Style-Caps;display:inline;opacity:1;fill:#000000;fill-opacity:1"
           id="path1323" /><path
           d="m 126.50427,192.78725 -1.70488,-3.4341 q -0.18505,-0.37276 -0.34721,-0.44053 -0.15817,-0.0797 -0.46748,0.0739 l -0.18241,0.0906 -0.15356,-0.3093 2.11757,-1.05127 0.15355,0.3093 -0.18241,0.0906 q -0.30931,0.15356 -0.34941,0.33164 -0.0361,0.16621 0.14894,0.53897 l 1.70488,3.4341 q 0.18505,0.37275 0.34322,0.4524 0.16216,0.0678 0.47147,-0.0858 l 0.18241,-0.0906 0.15356,0.30931 -2.11757,1.05127 -0.15355,-0.30931 0.18241,-0.0906 q 0.30931,-0.15356 0.34542,-0.31977 0.0401,-0.17808 -0.14495,-0.55084 z"
           style="font-family:Century-Old-Style-Caps;-inkscape-font-specification:Century-Old-Style-Caps;display:inline;opacity:1;fill:#000000;fill-opacity:1"
           id="path1325" /><path
           d="m 130.68093,191.86 -1.35298,-1.03899 0.16312,-0.27157 q 0.6715,0.29709 1.354,0.31438 0.67775,0.01 1.11862,-0.27044 0.39604,-0.25176 0.49132,-0.67956 0.0905,-0.43526 -0.16124,-0.8313 -0.26601,-0.41846 -0.68703,-0.48657 -0.41355,-0.0729 -1.21977,0.17735 -0.90267,0.28005 -1.34813,0.2065 -0.68042,-0.11305 -1.06519,-0.71832 -0.36102,-0.56791 -0.23372,-1.22591 0.1273,-0.658 0.67279,-1.00477 0.20923,-0.133 0.75531,-0.28079 0.14331,-0.0386 0.21803,-0.0862 0.0897,-0.057 0.16103,-0.17581 l 0.17331,-0.28854 1.28509,0.99821 -0.13936,0.30893 q -1.39729,-0.69606 -2.24915,-0.15453 -0.34373,0.21851 -0.43084,0.60964 -0.0796,0.38638 0.14363,0.73758 0.44177,0.69494 1.58965,0.32197 0.73966,-0.23938 0.96922,-0.29089 0.22957,-0.0515 0.51139,-0.0208 0.8115,0.0717 1.26753,0.78905 0.39902,0.62768 0.24113,1.3366 -0.15041,0.70417 -0.77063,1.09844 -0.29142,0.18526 -0.79672,0.26516 -0.23906,0.0366 -0.3362,0.0983 -0.0822,0.0523 -0.15426,0.20298 z"
           style="font-family:Century-Old-Style-Caps;-inkscape-font-specification:Century-Old-Style-Caps;display:inline;opacity:1;fill:#000000;fill-opacity:1"
           id="path1327" /><path
           d="m 140.69573,182.36512 -2.88637,-2.52359 q -0.3133,-0.27392 -0.48906,-0.27469 -0.17659,-0.0132 -0.40389,0.24672 l -0.13404,0.15332 -0.25998,-0.2273 1.31134,-1.49985 q 0.53036,-0.6066 0.78683,-0.80578 0.79274,-0.6242 1.77067,-0.54545 0.97709,0.0663 1.81701,0.8006 0.63327,0.55368 0.92009,1.27491 0.28015,0.71541 0.14633,1.43348 -0.13798,0.74972 -0.95392,1.68296 l -1.35213,1.54651 -0.25998,-0.2273 0.13405,-0.15332 q 0.2273,-0.25997 0.19724,-0.42739 -0.0309,-0.17991 -0.34419,-0.45383 z m -2.37102,-3.16684 2.85971,2.50028 q 0.35997,0.31472 0.55488,0.32047 0.20075,-9.1e-4 0.47467,-0.31421 0.59447,-0.67993 0.61505,-1.30883 0.0321,-0.9246 -1.23441,-2.03195 -0.83325,-0.72852 -1.53467,-0.89483 -0.70226,-0.17882 -1.31014,0.30121 -0.23232,0.18501 -0.45379,0.43831 -0.27975,0.31997 -0.27218,0.52654 0.008,0.20657 0.30088,0.46301 z"
           style="font-family:Century-Old-Style-Caps;-inkscape-font-specification:Century-Old-Style-Caps;display:inline;opacity:1;fill:#000000;fill-opacity:1"
           id="path1329" /><path
           d="m 141.71576,173.3003 0.20693,-0.72151 5.09448,1.41371 q 0.48262,0.13548 0.62227,0.0998 0.1445,-0.0431 0.37981,-0.35474 l 0.28911,0.18886 -1.21065,1.85324 -0.28911,-0.18886 0.12591,-0.19274 q 0.24697,-0.37806 0.0172,-0.52818 -0.0815,-0.0533 -0.40909,-0.15091 l -0.99006,-0.29774 -1.08958,1.66791 0.6656,0.79441 q 0.0944,0.11455 0.18335,0.17266 0.24462,0.15981 0.46917,0.0104 0.11228,-0.0747 0.28177,-0.33418 l 0.2891,0.18886 -0.98789,1.51224 -0.28911,-0.18886 q 0.1692,-0.29138 0.11068,-0.50941 -0.0408,-0.16416 -0.2992,-0.48102 z m 2.48624,2.45972 0.93947,-1.43811 -2.78801,-0.84828 z"
           style="font-family:Century-Old-Style-Caps;-inkscape-font-specification:Century-Old-Style-Caps;display:inline;opacity:1;fill:#000000;fill-opacity:1"
           id="path1331" /><path
           d="m 147.04468,168.2045 3.09503,-0.39287 q 0.51726,-0.0616 0.7125,-0.16588 0.19096,-0.11609 0.33323,-0.421 l 0.31294,0.14601 -0.96217,2.06219 -0.31294,-0.14601 0.10857,-0.2327 q 0.16098,-0.34503 -0.0155,-0.4274 -0.0722,-0.0337 -0.57343,0.0354 l -2.39535,0.33825 0.359,0.96871 1.17954,0.55035 q 0.37714,0.17596 0.55045,0.13957 0.16903,-0.0482 0.31504,-0.36109 l 0.0599,-0.12839 0.31294,0.14601 -0.9734,2.08627 -0.31294,-0.14601 0.0861,-0.18455 q 0.14601,-0.31294 0.0706,-0.46539 -0.0797,-0.16422 -0.45684,-0.34018 l -3.47444,-1.62109 q -0.37713,-0.17596 -0.54617,-0.1278 -0.17331,0.0364 -0.31932,0.34932 l -0.0861,0.18456 -0.31294,-0.14601 0.97341,-2.08627 0.31294,0.14601 -0.0599,0.12839 q -0.14601,0.31294 -0.0663,0.47715 0.0754,0.15245 0.45257,0.32841 l 1.84554,0.86109 -1.0251,-2.59858 q -0.16158,-0.40759 -0.28996,-0.4675 -0.21666,-0.10108 -0.37764,0.24396 l -0.0898,0.19257 -0.31294,-0.14601 0.86108,-1.84554 0.31294,0.14601 q -0.13424,0.30866 -0.10319,0.57719 0.023,0.26478 0.22793,0.80985 z"
           style="font-family:Century-Old-Style-Caps;-inkscape-font-specification:Century-Old-Style-Caps;display:inline;opacity:1;fill:#000000;fill-opacity:1"
           id="path1333" /><path
           d="m 147.04099,162.1497 -0.004,-0.75059 5.28647,-0.0746 q 0.50124,-0.006 0.62524,-0.0791 0.12657,-0.082 0.26484,-0.44717 l 0.33053,0.10003 -0.64119,2.11874 -0.33052,-0.10003 0.0667,-0.22035 q 0.1308,-0.43222 -0.13192,-0.51173 -0.0932,-0.0282 -0.43501,-0.0299 l -1.03383,-0.008 -0.57707,1.90687 0.862,0.5754 q 0.12277,0.0834 0.22447,0.11418 0.27968,0.0846 0.45319,-0.12188 0.0868,-0.10326 0.17652,-0.39989 l 0.33052,0.10003 -0.5232,1.72889 -0.33053,-0.10003 q 0.0805,-0.32717 -0.0369,-0.51998 -0.0853,-0.14608 -0.4223,-0.37758 z m 3.07719,1.66207 0.49756,-1.64414 -2.91404,-0.0308 z"
           style="font-family:Century-Old-Style-Caps;-inkscape-font-specification:Century-Old-Style-Caps;display:inline;opacity:1;fill:#000000;fill-opacity:1"
           id="path1335" /><path
           d="m 151.44998,156.61203 -0.0896,0.56852 1.77553,0.27995 q 0.41108,0.0648 0.56758,-0.0181 0.14912,-0.093 0.20291,-0.43413 l 0.0221,-0.13994 0.34111,0.0538 -0.35856,2.27408 -0.34111,-0.0538 0.0317,-0.20117 q 0.0538,-0.34111 -0.0609,-0.46676 -0.12201,-0.13577 -0.5331,-0.20058 l -3.78722,-0.59715 q -0.41108,-0.0648 -0.56021,0.0282 -0.15649,0.0829 -0.21028,0.424 l -0.0317,0.20117 -0.34111,-0.0538 0.36822,-2.33531 q 0.11722,-0.74345 0.40114,-1.23652 0.22225,-0.38626 0.6121,-0.58475 0.38986,-0.19848 0.80969,-0.13228 0.40234,0.0634 0.71496,0.35475 0.314,0.28258 0.437,0.69638 0.0944,0.3107 0.066,0.71856 l 2.02435,-0.72959 q 0.46581,-0.16858 0.62459,-0.32283 0.15878,-0.15424 0.21395,-0.5041 l 0.0193,-0.12245 0.34112,0.0538 -0.21928,1.39068 z m -0.43076,0.51473 0.12274,-0.77843 q 0.0938,-0.59476 -0.17743,-0.97816 -0.27858,-0.39351 -0.8646,-0.48591 -1.12829,-0.17791 -1.34343,1.18654 -0.0648,0.41109 0.0443,0.57172 0.10177,0.1505 0.48661,0.21118 z"
           style="font-family:Century-Old-Style-Caps;-inkscape-font-specification:Century-Old-Style-Caps;display:inline;opacity:1;fill:#000000;fill-opacity:1"
           id="path1337" /><path
           d="m 153.2583,147.82236 0.12907,-0.27213 1.52967,0.60421 -0.0802,4.2937 -0.34527,-0.006 0.004,-0.20362 q 0.006,-0.34526 -0.12436,-0.45398 -0.1395,-0.11773 -0.55559,-0.1255 l -3.83334,-0.0716 q -0.41609,-0.008 -0.55104,0.10484 -0.14363,0.10359 -0.15008,0.44886 l -0.004,0.20362 -0.34527,-0.006 0.0779,-4.16976 1.44394,-0.49554 0.10045,0.31184 q -0.69044,0.45647 -0.95544,0.89433 -0.26484,0.429 -0.2779,1.12839 -0.008,0.4515 0.095,0.60399 0.10359,0.14363 0.43115,0.14974 l 1.81486,0.0339 0.005,-0.27444 q 0.0121,-0.64627 -0.17807,-0.89779 -0.19899,-0.25169 -0.78147,-0.35998 l 0.006,-0.33641 2.34604,0.0438 -0.006,0.32756 q -0.61251,0.0771 -0.82092,0.33006 -0.20825,0.24408 -0.22097,0.92576 l -0.005,0.24789 1.94765,0.0364 q 0.35412,0.007 0.47153,-0.11518 0.10855,-0.12196 0.11615,-0.5292 0.014,-0.7525 -0.26834,-1.28029 -0.29125,-0.52794 -1.0158,-1.09055 z"
           style="font-family:Century-Old-Style-Caps;-inkscape-font-specification:Century-Old-Style-Caps;display:inline;opacity:1;fill:#000000;fill-opacity:1"
           id="path1339" /><path
           d="m 154.38127,140.91993 -4.49839,3.94387 3.42587,-0.43416 q 0.96627,-0.12246 0.94773,-0.69133 l -0.008,-0.20427 0.34259,-0.0434 0.24602,1.94132 -0.34258,0.0434 -0.0432,-0.19981 q -0.12395,-0.55552 -1.09022,-0.43306 l -3.7948,0.48092 q -0.27517,0.29371 -0.22817,0.80542 l -0.36015,0.0456 -0.17478,-1.37913 3.90933,-3.52113 -2.90759,0.36849 q -0.51827,0.0657 -0.72118,0.22527 -0.21281,0.15193 -0.21776,0.46494 l -7.5e-4,0.20538 -0.34259,0.0434 -0.24602,-1.94133 0.34258,-0.0434 0.052,0.19869 q 0.0829,0.30189 0.32797,0.40471 0.2352,0.0952 0.75347,0.0295 l 4.59417,-0.58223 z"
           style="font-family:Century-Old-Style-Caps;-inkscape-font-specification:Century-Old-Style-Caps;display:inline;opacity:1;fill:#000000;fill-opacity:1"
           id="path1341" /><path
           d="m 153.66647,137.44256 -1.39548,0.98119 -0.2105,-0.23674 q 0.48398,-0.55221 0.7042,-1.19844 0.21167,-0.64392 0.0758,-1.14835 -0.12208,-0.45314 -0.50194,-0.67176 -0.3884,-0.21632 -0.84154,-0.0942 -0.47878,0.12899 -0.66945,0.51049 -0.19297,0.37295 -0.1948,1.2171 -0.002,0.94511 -0.20531,1.34832 -0.31099,0.61565 -1.00351,0.80223 -0.64978,0.17505 -1.23979,-0.14285 -0.59,-0.3179 -0.75815,-0.94202 -0.0645,-0.23939 -0.0426,-0.80469 0.006,-0.14831 -0.0171,-0.23381 -0.0276,-0.10259 -0.11974,-0.20617 l -0.22366,-0.25153 1.33629,-0.92856 0.25325,0.22522 q -1.0814,1.12583 -0.81881,2.10049 0.10595,0.39329 0.45325,0.59317 0.34499,0.19133 0.74683,0.0831 0.79512,-0.21421 0.78177,-1.42108 -0.008,-0.7774 0.0117,-1.01187 0.0194,-0.23448 0.13277,-0.49428 0.31063,-0.75312 1.13141,-0.97424 0.71817,-0.19349 1.34765,0.1688 0.62717,0.35374 0.81835,1.06336 0.0898,0.33344 0.0153,0.83955 -0.0365,0.23908 -0.007,0.35023 0.0253,0.094 0.14769,0.2078 z"
           style="font-family:Century-Old-Style-Caps;-inkscape-font-specification:Century-Old-Style-Caps;display:inline;opacity:1;fill:#000000;fill-opacity:1"
           id="path1343" /><path
           d="m 150.73934,131.88798 -3.57664,1.38105 q -0.38822,0.14991 -0.47066,0.30513 -0.0939,0.15015 0.0305,0.4723 l 0.0734,0.18998 -0.32215,0.12439 -0.85159,-2.20545 0.32214,-0.12439 0.0734,0.18998 q 0.12439,0.32214 0.29802,0.37849 0.16217,0.0513 0.5504,-0.0986 l 3.57664,-1.38105 q 0.38822,-0.14991 0.48211,-0.30006 0.0824,-0.15523 -0.0419,-0.47737 l -0.0734,-0.18998 0.32215,-0.12439 0.85159,2.20545 -0.32214,0.12439 -0.0734,-0.18998 q -0.12439,-0.32215 -0.28657,-0.37342 -0.17362,-0.0564 -0.56185,0.0935 z"
           style="font-family:Century-Old-Style-Caps;-inkscape-font-specification:Century-Old-Style-Caps;display:inline;opacity:1;fill:#000000;fill-opacity:1"
           id="path1345" /><path
           d="m 150.20062,127.64377 -1.15877,1.25193 -0.25546,-0.18735 q 0.35746,-0.64141 0.43731,-1.31944 0.072,-0.67399 -0.16665,-1.13872 -0.21436,-0.41747 -0.63161,-0.5516 -0.42512,-0.13009 -0.84259,0.0843 -0.44111,0.22649 -0.54756,0.63949 -0.1105,0.40511 0.0647,1.23089 0.19604,0.92456 0.0819,1.3614 -0.17501,0.66717 -0.81304,0.99477 -0.59864,0.30739 -1.24218,0.12024 -0.64354,-0.18715 -0.93879,-0.76215 -0.11325,-0.22056 -0.2103,-0.77789 -0.0253,-0.14625 -0.0658,-0.22502 -0.0485,-0.0945 -0.16029,-0.17648 l -0.27142,-0.19906 1.11193,-1.18807 0.29484,0.16713 q -0.82135,1.32751 -0.36028,2.22547 0.18605,0.36234 0.56754,0.48497 0.37743,0.11476 0.74765,-0.0753 0.73254,-0.37614 0.46648,-1.55339 -0.1705,-0.75851 -0.20072,-0.99184 -0.0302,-0.23332 0.0262,-0.51113 0.14585,-0.8015 0.90203,-1.18978 0.66165,-0.33974 1.35309,-0.11746 0.6874,0.2144 1.02309,0.86817 0.15774,0.3072 0.19093,0.8177 0.0145,0.24141 0.067,0.3438 0.0445,0.0867 0.18797,0.17223 z"
           style="font-family:Century-Old-Style-Caps;-inkscape-font-specification:Century-Old-Style-Caps;display:inline;opacity:1;fill:#000000;fill-opacity:1"
           id="path1347" /></g><g
         aria-label="LUX MEA LEX"
         id="text1283"
         style="font-size:10.2306px;line-height:1.25;font-family:'Bodoni 72';-inkscape-font-specification:'Bodoni 72, ';text-align:center;letter-spacing:1.12977px;word-spacing:1.97644px;text-anchor:middle;display:inline;opacity:1;fill:#000000;fill-opacity:1;stroke-width:0.228727"><path
           d="m 72.397658,109.29601 0.344268,-0.12639 0.747635,1.72508 -3.493204,3.2744 -0.272867,-0.2911 0.171675,-0.16092 q 0.2911,-0.27287 0.275721,-0.46879 -0.01491,-0.21038 -0.343752,-0.56119 l -3.029522,-3.23196 q -0.32884,-0.35082 -0.530822,-0.37182 -0.201515,-0.0355 -0.492615,0.2374 l -0.171675,0.16092 -0.272867,-0.2911 1.992918,-1.86809 0.272867,0.2911 -0.171675,0.16092 q -0.2911,0.27287 -0.276188,0.48325 0.01538,0.19592 0.344219,0.54673 l 2.966553,3.16479 q 0.293857,0.31349 0.407672,0.37507 0.241625,0.1381 0.508462,-0.0559 0.0891,-0.0695 0.223456,-0.19544 0.440383,-0.41279 0.602739,-0.73325 0.169821,-0.32745 0.230969,-0.87556 0.06349,-0.62041 -0.03397,-1.18811 z"
           style="font-family:Century-Old-Style-Caps;-inkscape-font-specification:Century-Old-Style-Caps;fill:#000000;fill-opacity:1"
           id="path1350" /><path
           d="m 73.301954,104.0561 1.756268,2.57914 q 0.374286,0.54966 0.557826,0.74649 0.177781,0.18837 0.42591,0.31646 0.815459,0.39777 1.601888,-0.13775 0.947097,-0.64492 0.752888,-1.63901 -0.08657,-0.43614 -0.673916,-1.29868 l -1.433806,-2.1056 q -0.316704,-0.46509 -0.527947,-0.59354 -0.316866,-0.19268 -0.67545,-0.0104 l -0.211768,0.10707 -0.224572,-0.32979 1.868825,-1.27258 0.224572,0.32979 -0.168762,0.15205 q -0.309458,0.27262 -0.237822,0.63229 0.0567,0.2832 0.333092,0.6891 l 1.45108,2.13097 q 0.696749,1.0232 0.765162,1.63261 0.130706,1.17348 -1.137727,2.03722 -1.243064,0.84646 -2.266345,0.3798 -0.467467,-0.21391 -0.855605,-0.72937 -0.04301,-0.045 -0.365468,-0.51853 l -1.744752,-2.56224 q -0.276396,-0.40589 -0.472701,-0.45788 -0.187848,-0.0577 -0.509184,0.16107 l -0.20295,0.1382 -0.224572,-0.3298 2.257811,-1.53745 0.224572,0.32979 -0.194493,0.13244 q -0.321336,0.21882 -0.339135,0.42897 -0.02356,0.2017 0.247081,0.59915 z"
           style="font-family:Century-Old-Style-Caps;-inkscape-font-specification:Century-Old-Style-Caps;fill:#000000;fill-opacity:1"
           id="path1352" /><path
           d="m 83.066472,100.46788 2.454897,1.68203 q 0.482045,0.32704 0.732547,0.37866 0.259757,0.0473 0.620698,-0.12279 l 0.03702,-0.0174 0.17005,0.36094 -2.45255,1.15547 -0.17005,-0.36095 0.240627,-0.11336 q 0.434981,-0.20493 0.347776,-0.39003 -0.03924,-0.0833 -0.462467,-0.38151 l -1.692896,-1.19283 -0.202757,2.01808 q -0.02982,0.29677 0.05739,0.48187 0.148248,0.31467 0.555464,0.12282 l 0.259138,-0.12209 0.17005,0.36094 -2.193413,1.03338 -0.17005,-0.36094 0.111059,-0.0523 q 0.583059,-0.2747 0.701343,-1.22385 l 0.314714,-2.50057 -2.221751,-1.475213 q -0.446094,-0.298744 -0.591501,-0.34333 -0.345273,-0.108751 -0.780254,0.09618 l -0.03702,0.01744 -0.17005,-0.360941 2.424786,-1.142388 0.17005,0.360941 -0.212863,0.100286 q -0.397961,0.187491 -0.297675,0.400354 0.0436,0.09255 0.494057,0.400548 l 1.414545,0.962083 0.158789,-1.703328 q 0.03738,-0.424742 -0.02366,-0.55431 -0.126447,-0.268393 -0.635467,-0.02858 l -0.101804,0.04796 -0.17005,-0.360942 2.063844,-0.972338 0.17005,0.360941 -0.07404,0.03488 q -0.333177,0.15697 -0.476275,0.405334 -0.133844,0.244005 -0.215814,0.814153 z"
           style="font-family:Century-Old-Style-Caps;-inkscape-font-specification:Century-Old-Style-Caps;fill:#000000;fill-opacity:1"
           id="path1354" /><path
           d="m 99.030415,93.614303 -1.366591,6.425737 -0.293915,0.0405 -3.051235,-5.73485 0.612591,4.44926 q 0.08652,0.628369 0.264687,0.872343 0.176776,0.233838 0.545821,0.214008 l 0.235896,-0.01183 0.05442,0.395269 -2.239833,0.30839 -0.05442,-0.39527 0.230314,-0.0524 q 0.640266,-0.150122 0.48677,-1.264971 l -0.548402,-3.98305 q -0.06558,-0.476344 -0.218271,-0.610228 -0.143946,-0.145415 -0.539211,-0.09099 l -0.233105,0.03209 -0.05442,-0.395264 2.077672,-0.286062 2.615649,4.896369 1.174837,-5.418258 2.037131,-0.28048 0.0544,0.395265 -0.2331,0.03209 q -0.39527,0.05442 -0.50469,0.234721 -0.100693,0.16877 -0.0351,0.645115 l 0.60422,4.388449 q 0.067,0.48648 0.20953,0.62176 0.14255,0.135279 0.54795,0.07946 l 0.23311,-0.03209 0.0544,0.395264 -2.706043,0.372578 -0.05442,-0.395264 0.233105,-0.03209 q 0.395265,-0.05442 0.495953,-0.223191 0.109428,-0.180301 0.04384,-0.656645 z"
           style="font-family:Century-Old-Style-Caps;-inkscape-font-specification:Century-Old-Style-Caps;fill:#000000;fill-opacity:1"
           id="path1356" /><path
           d="m 108.75703,97.526771 0.31807,0.141151 -0.65333,1.784435 -4.96173,0.03245 -0.003,-0.398985 0.2353,-0.0015 q 0.39898,-0.0026 0.52074,-0.156868 0.13193,-0.164556 0.12878,-0.645384 l -0.029,-4.429755 q -0.003,-0.480828 -0.13714,-0.633414 -0.12384,-0.162883 -0.52282,-0.160273 l -0.2353,0.0015 -0.003,-0.398984 4.81851,-0.03151 0.61443,1.653374 -0.35726,0.125106 q -0.54736,-0.784193 -1.06082,-1.077528 -0.50323,-0.293403 -1.31143,-0.288117 -0.52175,0.0034 -0.69487,0.127315 -0.16288,0.123835 -0.1604,0.502359 l 0.0137,2.097228 0.31715,-0.0021 q 0.74681,-0.0049 1.03179,-0.231827 0.28491,-0.237172 0.39303,-0.913113 l 0.38876,-0.0025 0.0177,2.711051 -0.37853,0.0025 q -0.10692,-0.705227 -0.40514,-0.938585 -0.28799,-0.233426 -1.07573,-0.228274 l -0.28645,0.0019 0.0147,2.250684 q 0.003,0.409215 0.14678,0.541273 0.14402,0.121828 0.61462,0.11875 0.86958,-0.0057 1.47097,-0.347238 0.60132,-0.35178 1.23005,-1.20505 z"
           style="font-family:Century-Old-Style-Caps;-inkscape-font-specification:Century-Old-Style-Caps;fill:#000000;fill-opacity:1"
           id="path1358" /><path
           d="m 114.38138,93.475895 0.86133,-0.101208 0.76511,6.060532 q 0.0708,0.574831 0.17114,0.707771 0.11038,0.1348 0.54749,0.24663 l -0.0724,0.39238 -2.51522,-0.46394 0.0724,-0.392371 0.26158,0.04825 q 0.51311,0.09464 0.57064,-0.217245 0.0204,-0.11067 -0.0216,-0.503336 l -0.12416,-1.188058 -2.2637,-0.41754 -0.54992,1.063725 q -0.08,0.151696 -0.10226,0.272426 -0.0612,0.332009 0.1982,0.504701 0.12971,0.08634 0.48184,0.151296 l -0.0724,0.392372 -2.05242,-0.378567 0.0724,-0.392374 q 0.38603,0.0504 0.59232,-0.109214 0.15677,-0.116728 0.37928,-0.533427 z m -1.51297,3.746961 1.95181,0.360011 -0.33919,-3.349967 z"
           style="font-family:Century-Old-Style-Caps;-inkscape-font-specification:Century-Old-Style-Caps;fill:#000000;fill-opacity:1"
           id="path1360" /><path
           d="m 128.8323,103.19296 0.24424,0.27358 -1.32876,1.33013 -4.33033,-2.04265 0.17022,-0.36086 0.21282,0.10038 q 0.36086,0.17022 0.53736,0.0838 0.19012,-0.0913 0.39526,-0.52619 l 1.88989,-4.006481 q 0.20514,-0.434884 0.15032,-0.630417 -0.0412,-0.200421 -0.40206,-0.370642 l -0.21281,-0.100387 0.17022,-0.360861 2.47051,1.165361 -0.17022,0.36086 -0.21282,-0.100387 q -0.36086,-0.170221 -0.55098,-0.07892 -0.1765,0.08642 -0.38164,0.521301 l -1.85061,3.923213 q -0.18332,0.38861 -0.19868,0.51711 -0.0395,0.27549 0.23917,0.45217 0.0974,0.0573 0.26397,0.13583 0.54592,0.25751 0.90364,0.29051 0.36697,0.0374 0.8991,-0.10754 0.60021,-0.16934 1.09219,-0.46892 z"
           style="font-family:Century-Old-Style-Caps;-inkscape-font-specification:Century-Old-Style-Caps;fill:#000000;fill-opacity:1"
           id="path1362" /><path
           d="m 135.05671,106.99722 0.19674,0.28704 -1.49237,1.17639 -4.2411,-2.57546 0.2071,-0.34104 0.20113,0.12214 q 0.34103,0.2071 0.52562,0.13965 0.19864,-0.0709 0.44822,-0.48187 l 2.29933,-3.78638 q 0.24958,-0.41099 0.21555,-0.61119 -0.02,-0.20364 -0.361,-0.41074 l -0.20113,-0.12213 0.2071,-0.34104 4.11867,2.50111 -0.34433,1.72992 -0.36978,-0.0809 q -0.0546,-0.95477 -0.3378,-1.47388 -0.27449,-0.51379 -0.9653,-0.93329 -0.44597,-0.27083 -0.65835,-0.25617 -0.20364,0.02 -0.40012,0.34352 l -1.08859,1.79263 0.27108,0.16462 q 0.63835,0.38764 1.00002,0.34395 0.36698,-0.0524 0.81365,-0.57116 l 0.33229,0.20178 -1.40721,2.3173 -0.32355,-0.19647 q 0.27896,-0.65648 0.14751,-1.0116 -0.12271,-0.34981 -0.79604,-0.7587 l -0.24485,-0.14868 -1.16825,1.92379 q -0.21241,0.34978 -0.15902,0.53781 0.0587,0.17927 0.46095,0.42354 0.74329,0.45137 1.43445,0.47611 0.69648,0.016 1.67938,-0.38058 z"
           style="font-family:Century-Old-Style-Caps;-inkscape-font-specification:Century-Old-Style-Caps;fill:#000000;fill-opacity:1"
           id="path1364" /><path
           d="m 140.59835,109.05686 -0.52976,2.92833 q -0.10106,0.57368 -0.0456,0.82336 0.0632,0.25634 0.36611,0.51605 l 0.0311,0.0266 -0.25971,0.3029 -2.05816,-1.76468 0.25971,-0.3029 0.20193,0.17314 q 0.36504,0.31298 0.49822,0.15764 0.0599,-0.0699 0.15877,-0.57811 l 0.39535,-2.03284 -1.92425,0.64109 q -0.28298,0.0943 -0.41617,0.24961 -0.22641,0.26407 0.11532,0.55707 l 0.21747,0.18646 -0.25971,0.3029 -1.84069,-1.57823 0.25971,-0.3029 0.0932,0.0799 q 0.48929,0.41953 1.4037,0.13893 l 2.4103,-0.73645 0.4365,-2.63095 q 0.09,-0.5293 0.0711,-0.68021 -0.0421,-0.35954 -0.40715,-0.67252 l -0.0311,-0.0266 0.2597,-0.3029 2.03486,1.74471 -0.25971,0.30289 -0.17863,-0.15316 q -0.33396,-0.28634 -0.48712,-0.10771 -0.0666,0.0777 -0.16322,0.61473 l -0.29876,1.68443 1.61909,-0.55237 q 0.40283,-0.13976 0.49606,-0.24849 0.19311,-0.22523 -0.23405,-0.59149 l -0.0854,-0.0733 0.25971,-0.30289 1.73196,1.48499 -0.25971,0.3029 -0.0621,-0.0533 q -0.2796,-0.23973 -0.56478,-0.26863 -0.27741,-0.0222 -0.83116,0.13636 z"
           style="font-family:Century-Old-Style-Caps;-inkscape-font-specification:Century-Old-Style-Caps;fill:#000000;fill-opacity:1"
           id="path1366" /></g></g></g></svg>
